<svg width="1124" height="633" viewBox="0 0 1124 633" fill="none" xmlns="http://www.w3.org/2000/svg">
<g clip-path="url(#clip0_383_1472)">
<g filter="url(#filter0_f_383_1472)">
<path d="M907.41 503.642C917.365 560.55 864.411 529.143 813.911 538.645C794.153 542.362 756.911 538.647 723.411 529.148C656.137 545.969 580.411 537.652 565.911 531.653C547.11 531.1 540.074 548.058 534.411 549.154C518.911 552.154 504.107 546.651 449.411 549.157C443.009 549.45 410.911 546.158 395.411 549.158C379.911 552.159 373.331 553.935 367.912 554.159C346.961 555.028 357.226 547.945 326.726 544.946C295.926 546.947 292.727 559.662 285.727 566.162C278.727 572.662 197.232 575.165 195.412 566.165C193.591 557.165 197.406 388.665 197.406 388.665C197.406 388.665 198.403 284.165 188.402 262.665C178.401 241.166 97.4184 265.668 92.9004 216.668C88.3825 167.669 102.398 138.668 114.898 137.668C127.398 136.667 381.897 122.659 404.398 148.158C426.899 173.657 416.901 248.658 374.401 248.659C331.901 248.661 335.901 246.16 309.902 254.161C309.902 254.161 287.404 326.662 309.904 330.661C332.404 334.661 338.904 318.66 364.904 315.16C390.904 311.659 417.904 317.158 417.904 317.158C432.055 312.011 437.817 303.761 476.403 305.156C493.032 305.757 492.402 276.155 533.902 269.654C575.402 263.153 567.729 304.334 576.403 305.153C589.906 306.427 602.403 287.152 616.903 293.651C622.794 296.292 621.404 332.651 639.904 338.151C718.405 356.648 679.205 190.45 675.615 168.309C590.817 176.354 630.5 121.254 658.037 98.5541C690.973 65.2975 870.352 72.274 955.256 84.6598C971.896 91.6397 981.801 135.114 987.898 155.639C1088.09 123.935 1099.21 197.363 1091.9 221.136C1084.59 244.909 983.404 337.139 983.404 337.139C1013.41 370.138 991.407 423.139 948.407 407.14C932.686 427.687 941.908 450.141 941.908 450.141C941.908 450.141 950.909 468.14 945.409 480.641C945.409 480.641 924.328 504.2 907.41 503.642Z" fill="#2C1F6E" fill-opacity="0.8"/>
<path d="M907.41 503.642C917.365 560.55 864.411 529.143 813.911 538.645C794.153 542.362 756.911 538.647 723.411 529.148C656.137 545.969 580.411 537.652 565.911 531.653C547.11 531.1 540.074 548.058 534.411 549.154C518.911 552.154 504.107 546.651 449.411 549.157C443.009 549.45 410.911 546.158 395.411 549.158C379.911 552.159 373.331 553.935 367.912 554.159C346.961 555.028 357.226 547.945 326.726 544.946C295.926 546.947 292.727 559.662 285.727 566.162C278.727 572.662 197.232 575.165 195.412 566.165C193.591 557.165 197.406 388.665 197.406 388.665C197.406 388.665 198.403 284.165 188.402 262.665C178.401 241.166 97.4184 265.668 92.9004 216.668C88.3825 167.669 102.398 138.668 114.898 137.668C127.398 136.667 381.897 122.659 404.398 148.158C426.899 173.657 416.901 248.658 374.401 248.659C331.901 248.661 335.901 246.16 309.902 254.161C309.902 254.161 287.404 326.662 309.904 330.661C332.404 334.661 338.904 318.66 364.904 315.16C390.904 311.659 417.904 317.158 417.904 317.158C432.055 312.011 437.817 303.761 476.403 305.156C493.032 305.757 492.402 276.155 533.902 269.654C575.402 263.153 567.729 304.334 576.403 305.153C589.906 306.427 602.403 287.152 616.903 293.651C622.794 296.292 621.404 332.651 639.904 338.151C718.405 356.648 679.205 190.45 675.615 168.309C590.817 176.354 630.5 121.254 658.037 98.5541C690.973 65.2975 870.352 72.274 955.256 84.6598C971.896 91.6397 981.801 135.114 987.898 155.639C1088.09 123.935 1099.21 197.363 1091.9 221.136C1084.59 244.909 983.404 337.139 983.404 337.139C1013.41 370.138 991.407 423.139 948.407 407.14C932.686 427.687 941.908 450.141 941.908 450.141C941.908 450.141 950.909 468.14 945.409 480.641C945.409 480.641 924.328 504.2 907.41 503.642Z" stroke="#2C1F6E" stroke-opacity="0.8" stroke-width="30"/>
</g>
<g filter="url(#filter1_d_383_1472)">
<path d="M877.215 483.289C887.171 540.197 834.216 508.79 783.717 518.292C763.959 522.009 726.717 518.293 693.216 508.795C616.261 531.856 551.762 517.855 537.261 511.856C518.461 511.303 509.88 527.704 504.217 528.801C488.717 531.801 473.912 526.297 419.217 528.803C412.815 529.097 380.717 525.805 365.217 528.805C349.717 531.806 343.137 533.581 337.717 533.806C316.767 534.675 327.032 527.592 296.532 524.593C265.732 526.594 262.533 539.309 255.533 545.809C248.533 552.309 167.038 554.812 165.218 545.812C163.397 536.812 167.212 368.312 167.212 368.312C167.212 368.312 168.208 263.812 158.208 242.312C148.207 220.812 67.2241 245.315 62.7061 196.315C58.1881 147.315 72.2035 118.315 84.7035 117.315C97.2035 116.314 351.703 102.306 374.204 127.805C396.705 153.304 386.707 228.305 344.207 228.306C301.707 228.307 305.707 225.807 279.707 233.808C279.707 233.808 257.21 306.309 279.71 310.308C302.21 314.307 308.709 298.307 334.709 294.806C360.709 291.305 387.709 296.805 387.709 296.805C401.86 291.658 407.623 283.407 446.209 284.803C462.838 285.404 462.208 255.802 503.708 249.301C545.208 242.799 537.534 283.981 546.209 284.799C559.711 286.073 572.208 266.798 586.709 273.298C592.6 275.939 591.21 312.298 609.71 317.797C688.211 336.295 649.011 170.096 645.421 147.956C560.623 156.001 600.306 100.901 627.843 78.2008C660.779 44.9442 840.157 51.9207 925.062 64.3065C941.702 71.2864 951.607 114.761 957.704 135.286C1057.9 103.582 1069.02 177.009 1061.71 200.782C1054.39 224.556 953.21 316.786 953.21 316.786C983.211 349.785 961.213 402.786 918.212 386.787C902.491 407.334 911.714 429.787 911.714 429.787C911.714 429.787 920.714 447.787 915.215 460.287C915.215 460.287 894.133 483.847 877.215 483.289Z" fill="white"/>
<path d="M877.215 483.289C887.171 540.197 834.216 508.79 783.717 518.292C763.959 522.009 726.717 518.293 693.216 508.795C616.261 531.856 551.762 517.855 537.261 511.856C518.461 511.303 509.88 527.704 504.217 528.801C488.717 531.801 473.912 526.297 419.217 528.803C412.815 529.097 380.717 525.805 365.217 528.805C349.717 531.806 343.137 533.581 337.717 533.806C316.767 534.675 327.032 527.592 296.532 524.593C265.732 526.594 262.533 539.309 255.533 545.809C248.533 552.309 167.038 554.812 165.218 545.812C163.397 536.812 167.212 368.312 167.212 368.312C167.212 368.312 168.208 263.812 158.208 242.312C148.207 220.812 67.2241 245.315 62.7061 196.315C58.1881 147.315 72.2035 118.315 84.7035 117.315C97.2035 116.314 351.703 102.306 374.204 127.805C396.705 153.304 386.707 228.305 344.207 228.306C301.707 228.307 305.707 225.807 279.707 233.808C279.707 233.808 257.21 306.309 279.71 310.308C302.21 314.307 308.709 298.307 334.709 294.806C360.709 291.305 387.709 296.805 387.709 296.805C401.86 291.658 407.623 283.407 446.209 284.803C462.838 285.404 462.208 255.802 503.708 249.301C545.208 242.799 537.534 283.981 546.209 284.799C559.711 286.073 572.208 266.798 586.709 273.298C592.6 275.939 591.21 312.298 609.71 317.797C688.211 336.295 649.011 170.096 645.421 147.956C560.623 156.001 600.306 100.901 627.843 78.2008C660.779 44.9442 840.157 51.9207 925.062 64.3065C941.702 71.2864 951.607 114.761 957.704 135.286C1057.9 103.582 1069.02 177.009 1061.71 200.782C1054.39 224.556 953.21 316.786 953.21 316.786C983.211 349.785 961.213 402.786 918.212 386.787C902.491 407.334 911.714 429.787 911.714 429.787C911.714 429.787 920.714 447.787 915.215 460.287C915.215 460.287 894.133 483.847 877.215 483.289Z" stroke="white" stroke-width="21.1"/>
</g>
<path d="M652.126 117.89C651.643 117.327 650.968 116.966 650.232 116.875C649.496 116.785 648.753 116.972 648.148 117.4C645.126 119.46 642.224 121.478 639.321 123.526C637.521 124.809 635.677 126.092 633.477 123.961C632.696 123.158 632.182 122.133 632.007 121.027C631.831 119.92 632.003 118.787 632.498 117.782C635.624 111.039 638.517 104.082 642.67 98.0016C645.069 94.4999 649.691 92.1036 653.795 90.2758C666.902 84.4532 680.866 84.9264 694.923 82.5904C728.098 77.2302 761.713 75.0715 795.302 76.1442C822.807 76.754 850.32 78.3456 877.75 79.6231C886.671 80.0439 895.714 80.9732 904.706 81.4998C910.533 81.8372 914.391 84.377 917.476 89.562C926.645 104.952 931.288 121.758 933.788 139.216C935.592 151.825 936.708 164.567 938.14 177.211C938.136 177.36 938.327 177.483 938.903 178.344C942.268 174.923 945.439 171.513 948.799 168.315C956.756 160.727 964.757 153.2 972.8 145.733C989.514 130.263 1010.18 129.933 1027.24 145.14C1035.87 152.768 1043.64 161.389 1046.88 172.795C1052.01 190.757 1048.81 207.435 1036.03 221.252C1026.88 231.238 1016.5 240.155 1006.63 249.575C984.335 270.797 962.007 292.008 939.649 313.208C939.395 313.469 939.16 313.747 938.946 314.04C942.293 318.131 945.932 321.826 948.693 326.156C954.133 334.546 958.31 343.504 959.17 353.741C960.747 372.547 947.147 384.487 928.82 380.094C924.762 378.895 920.774 377.471 916.874 375.829C914.77 382.817 912.32 389.903 910.449 397.134C908.276 405.847 906.518 414.673 904.819 423.485C903.762 429.832 904.655 436.35 907.381 442.179C907.777 443.125 908.202 444.072 908.583 445.032C910.573 449.94 909.558 453.428 905.247 456.56C900.104 460.283 894.083 461.31 887.984 461.874C853.684 464.995 819.158 464.245 784.725 463.303C771.589 463.012 758.392 462.823 745.358 461.345C736.139 460.307 728.071 463.713 719.51 465.234C717.284 465.616 715.126 466.267 712.928 466.739C708.591 467.654 704.896 465.862 703.409 461.768C702.721 459.879 701.671 459.603 699.904 459.43C686.94 458.131 673.926 455.73 661.101 453.527C648.039 451.289 641.327 440.52 641.222 427.131C641.156 418.696 643.211 410.576 645.458 402.534C650.758 383.673 656.674 366.565 661.396 347.571C669.552 315.342 672.26 282.485 671.79 249.276C671.518 229.354 671.006 209.471 668.916 189.642C666.984 171.349 664.775 151.518 660.051 133.683C658.671 127.875 655.958 122.468 652.126 117.89ZM721.409 349.363C724.082 335.53 730.878 325.031 744.924 321.133C758.971 317.235 770.555 321.701 779.682 332.925L867.901 247.317C844.518 250.741 830.666 235.143 829.835 218.942C828.92 201.787 842.807 187.652 860.511 187.925C864.423 187.892 868.299 188.683 871.885 190.246C875.471 191.809 878.687 194.11 881.325 196.999C888.94 205.274 891.342 215.07 888.853 226.616C890.731 225.134 892.436 223.445 893.936 221.582C901.327 212.117 909.959 203.688 919.599 196.523C927.047 190.858 929.89 186.146 928.944 177.796C927.09 161.393 925.967 144.903 922.396 128.745C919.828 117.057 916.284 105.733 909.859 95.4617C909.15 94.1348 908.09 93.0281 906.795 92.2623C905.499 91.4965 904.018 91.1011 902.514 91.1193C885.446 90.3096 868.327 89.1418 851.337 88.1999C821.979 86.5674 792.626 85.4109 763.212 86.3206C738.699 87.0563 714.396 87.6926 690.288 92.2896C679.691 94.3156 669.211 95.0649 659.305 99.5158C657.727 100.303 656.214 101.215 654.78 102.241C654.633 102.331 654.512 102.456 654.426 102.605C654.341 102.754 654.294 102.922 654.29 103.093C654.286 103.265 654.326 103.435 654.404 103.587C654.483 103.74 654.599 103.87 654.741 103.966C656.209 104.906 657.457 105.662 658.584 106.52C665.403 111.758 668.686 120.785 671.1 128.692C675.61 143.458 677.668 158.705 679.637 173.95C683.205 201.65 683.986 229.511 684.082 257.432C684.399 290.886 680.221 324.232 671.659 356.574C666.973 373.933 661.627 389.491 657.017 406.821C655.352 413.449 654.32 420.219 653.934 427.041C653.451 434.051 656.819 439.897 663.663 441.342C670.062 442.689 676.608 443.504 683.11 444.228C691.128 445.105 699.132 447.26 707.301 447.977C708.063 445.837 708.702 443.888 709.414 441.985C716.629 422.65 723.859 403.325 731.103 384.011C731.385 383.279 731.486 382.491 731.397 381.712C731.308 380.933 731.032 380.187 730.592 379.537C728.092 375.639 725.792 371.617 723.701 367.485C723.465 366.901 723.06 366.399 722.537 366.046C722.015 365.693 721.399 365.503 720.768 365.502C710.155 364.24 700.971 360.244 694.125 351.524C682.63 336.991 684.083 319.129 687.649 302.624C688.394 299.204 691.964 299.299 695.248 300.219C698.206 301.043 699.625 304.169 699.214 308.607C698.803 313.045 698.475 317.782 698.507 322.379C698.557 328.836 700.87 335.071 705.043 340.001C709.216 344.93 714.986 348.242 721.349 349.361L721.409 349.363ZM896.843 357.625C872.51 381.122 848.216 404.61 823.963 428.089C815.491 436.305 807.224 444.674 794.842 446.631C793.752 446.8 792.677 446.984 791.614 447.258L780.209 450.158C781.329 450.722 782.567 451.014 783.821 451.012C790.028 451.219 796.225 451.411 802.412 451.588C832.056 452.394 861.696 452.679 891.276 449.646C893.931 449.378 896.549 448.781 899.327 448.337C898.211 444.981 897.097 442.189 896.371 439.347C894.177 430.16 894.318 420.571 896.781 411.453C900.194 397.829 904.302 384.37 908.1 370.83C908.36 369.854 908.439 368.264 907.871 367.701C904.184 364.184 900.431 360.932 896.754 357.623L896.843 357.625ZM933.761 222.317C930.686 219.393 926.329 214.507 926.329 214.507C926.329 214.507 924.879 212.808 924.239 212.14L921.499 209.521L920.605 210.215L752.521 373.881C754.658 374.835 756.16 375.553 757.694 376.182C760.039 377.156 761.616 378.5 761.582 381.37C761.626 383.432 761.869 385.484 762.31 387.499M954.312 226.446C962.076 234.724 962.518 232.949 970.282 241.213L983.264 251.065C984.084 251.787 985.137 252.19 986.23 252.2C987.322 252.211 988.382 251.828 989.216 251.122C990.05 250.416 992.897 246.861 992.897 246.861C994.525 245.69 996.022 244.346 997.362 242.854L998.233 241.833C998.845 241.135 999.573 240.547 1000.38 240.095C1001.35 239.614 1002.27 239.036 1003.12 238.371L1004.88 237.354C1004.45 236.735 1003.84 235.844 1003.44 235.27C1002.84 234.316 1001.27 233.263 1000.56 232.395C995.879 227.829 994.431 225.372 988.59 220.974C978.777 211.118 969.341 202.43 961.339 190.785C959.225 187.361 956.707 184.204 953.838 181.382C953.578 181.074 953.248 180.831 952.876 180.674C952.504 180.517 952.101 180.45 951.698 180.479C951.295 180.508 950.905 180.631 950.559 180.84C950.214 181.048 949.922 181.335 949.709 181.677C948.777 182.757 948.253 184.218 946.988 184.919C944.617 186.305 942.479 188.055 940.652 190.103C930.656 200.591 928.768 199.136 933.159 203.83M919.994 317.651C911.53 317.464 904.603 320.463 900.899 328.428C897.086 336.628 899.168 344.052 905.25 350.359C911.096 356.598 917.916 361.848 925.443 365.904C928.099 367.282 930.908 368.342 933.812 369.065C941.212 370.924 947.116 367.768 948.959 361.175C949.457 359.268 949.647 357.294 949.52 355.327C948.855 343.726 944.044 333.817 936.632 325.1C934.6 322.685 932.048 320.761 929.167 319.471C926.286 318.181 923.15 317.559 919.994 317.651ZM740.872 439.499C741.336 440.115 741.992 440.558 742.737 440.76C743.481 440.963 744.272 440.912 744.984 440.617C759.124 436.542 773.292 432.543 787.446 428.484C788.548 428.084 789.623 427.61 790.662 427.068L790.426 426.319C786.621 425.416 782.833 424.425 778.995 423.671C778.254 423.62 777.561 423.285 777.06 422.737C776.56 422.188 776.29 421.468 776.307 420.726C775.802 416.639 774.999 412.59 774.524 408.504C774.269 406.58 773.593 405.509 771.472 405.224C766.206 404.408 760.962 403.31 755.714 402.39C755.065 402.373 754.448 402.105 753.992 401.643C753.536 401.181 753.277 400.561 753.268 399.912C752.721 395.735 751.965 391.568 751.238 387.432C751.171 386.431 750.755 385.485 750.062 384.759C747.964 383.403 745.651 382.355 743.4 381.175C743.155 381.506 742.943 381.86 742.766 382.232C737.596 395.905 732.397 409.563 727.36 423.299C727.259 423.881 727.29 424.478 727.453 425.046C727.616 425.614 727.905 426.138 728.299 426.578M973.449 159.446C973.302 159.565 973.183 159.713 973.1 159.882C973.016 160.051 972.971 160.237 972.967 160.425C972.963 160.613 973 160.8 973.075 160.973C973.151 161.145 973.263 161.299 973.405 161.424C973.77 161.744 974.076 162.019 974.367 162.323C984.371 172.956 1005.32 195.181 1015.36 205.816C1021.47 212.287 1021.61 212.35 1028.41 206.447C1033.53 201.994 1037.55 196.863 1037.61 189.472C1037.65 184.634 1035.97 179.94 1032.88 176.218C1028.2 170.522 1013.81 152.086 1006.7 148.612C1003.94 146.233 1000.47 144.843 996.83 144.659C993.188 144.879 989.689 146.156 986.762 148.333C982.139 151.81 977.695 155.519 973.449 159.446ZM771.908 340.546C769.229 335.968 764.922 332.565 759.846 331.017C754.77 329.468 749.297 329.887 744.516 332.19C734.42 337.098 729.494 349.185 732.834 360.98C734.042 365.211 736.242 369.094 739.251 372.307L771.908 340.546ZM1006.85 226.867L1008.34 226.9C1008.91 226.169 1009.3 225.3 1009.88 224.614C1013.59 220.472 1013.66 220.429 1009.93 216.404C1001.95 207.809 993.937 199.287 985.882 190.705C979.5 183.87 973.208 177.037 966.811 170.172C966.055 169.367 964.309 168.257 963.961 168.517C961.972 169.876 960.249 171.587 958.878 173.566C958.492 174.197 959.992 176.342 961.01 177.436C969.413 186.398 977.999 195.215 986.357 204.206C993.321 211.634 1000.04 219.294 1006.85 226.867ZM856.974 207.183C856.959 205.744 856.522 204.342 855.716 203.149C854.911 201.956 853.773 201.027 852.443 200.475C851.114 199.923 849.651 199.773 848.237 200.044C846.824 200.316 845.521 200.996 844.49 202.001C843.46 203.006 842.747 204.291 842.441 205.697C842.135 207.102 842.249 208.567 842.769 209.909C843.288 211.251 844.19 212.411 845.363 213.245C846.537 214.079 847.929 214.55 849.368 214.6C851.343 214.575 853.231 213.787 854.638 212.401C856.045 211.016 856.86 209.14 856.914 207.167L856.974 207.183Z" fill="black"/>
<path d="M744.662 244.362C728.299 243.999 715.918 230.487 716.31 213.48C716.367 209.575 717.209 205.723 718.786 202.15C720.362 198.577 722.64 195.357 725.486 192.682C728.331 190.006 731.685 187.929 735.35 186.574C739.014 185.22 742.913 184.614 746.816 184.795C754.72 185.08 762.186 188.492 767.573 194.28C772.96 200.067 775.826 207.756 775.54 215.655C775.255 223.554 771.841 231.016 766.05 236.4C760.259 241.784 752.566 244.647 744.662 244.362ZM743.155 204.243C743.218 202.303 742.535 200.412 741.247 198.96C739.959 197.507 738.164 196.601 736.229 196.429C734.299 196.411 732.431 197.106 730.982 198.38C729.534 199.655 728.607 201.42 728.382 203.335C728.321 205.317 729.006 207.249 730.3 208.75C731.595 210.252 733.406 211.215 735.375 211.448C737.359 211.508 739.286 210.786 740.742 209.438C742.198 208.09 743.064 206.224 743.155 204.243Z" fill="black"/>
<path d="M740.662 152.933C748.008 153.26 755.062 155.906 760.81 160.489C765.93 164.485 765.527 171.229 760.089 173.518C758.151 174.105 756.086 174.132 754.134 173.594C752.437 173.059 750.821 172.293 749.333 171.316C742.696 167.926 735.887 166.898 728.74 169.744C727.551 170.331 726.199 170.504 724.9 170.235C723.601 169.966 722.429 169.272 721.57 168.261C720.671 167.164 720.126 165.821 720.006 164.409C719.886 162.997 720.196 161.581 720.897 160.348C721.649 159.193 722.628 158.203 723.774 157.437C728.775 154.166 734.695 152.587 740.662 152.933Z" fill="black"/>
<path d="M857.992 153.927C865.334 154.252 872.383 156.898 878.124 161.483C883.245 165.479 882.857 172.223 877.404 174.511C875.466 175.1 873.401 175.126 871.449 174.588C869.752 174.051 868.137 173.284 866.648 172.31C860.011 168.92 853.202 167.891 846.07 170.738C844.88 171.325 843.529 171.498 842.229 171.229C840.93 170.96 839.758 170.266 838.899 169.255C837.995 168.162 837.444 166.819 837.321 165.406C837.198 163.992 837.509 162.575 838.212 161.342C838.956 160.16 839.936 159.143 841.091 158.356C846.104 155.109 852.029 153.557 857.992 153.927Z" fill="black"/>
<path d="M756.851 457.181C756.851 457.181 755.388 473.51 753.152 475.647" stroke="black" stroke-width="19.3219" stroke-miterlimit="10"/>
<path d="M829.135 459.365C829.135 459.365 828.748 476.818 831.972 479.061" stroke="black" stroke-width="19.3219" stroke-miterlimit="10"/>
<path d="M864.794 499.222C865.948 490.179 855.994 481.46 842.56 479.747C829.126 478.034 817.301 483.976 816.146 493.019C814.992 502.062 824.947 510.781 838.381 512.494C851.814 514.207 863.64 508.265 864.794 499.222Z" stroke="black" stroke-width="17.6045" stroke-miterlimit="10"/>
<path d="M764.94 495.623C766.2 485.749 755.334 476.229 740.669 474.359C726.004 472.489 713.095 478.977 711.835 488.851C710.574 498.725 721.441 508.245 736.105 510.115C750.77 511.985 763.679 505.496 764.94 495.623Z" stroke="black" stroke-width="17.6045" stroke-miterlimit="10"/>
<g filter="url(#filter2_d_383_1472)">
<path d="M799.938 270.546C793.38 270.311 789.585 267.609 785.153 261.412C784.315 260.216 783.878 258.785 783.904 257.324C784.171 256.08 784.904 254.984 785.952 254.261C786.995 253.496 788.159 254.042 788.996 255.221C791.709 259.074 792.948 261.57 797.214 262.498C803.613 263.874 805.937 263.078 810.713 257.785C812.727 255.539 814.253 255.216 815.617 256.763C816.982 258.31 816.902 261.254 815.009 263.368C809.971 269.102 807.228 270.663 799.938 270.546Z" fill="black"/>
</g>
<g filter="url(#filter3_d_383_1472)">
<path d="M189.231 545.019L188.323 544.999C185.577 544.846 182.999 543.627 181.139 541.601C179.279 539.576 178.284 536.905 178.366 534.157L184.943 216.71L91.7986 217.32C85.4675 217.057 80.2205 212.298 80.474 206.416L80.654 138.632L80.6741 137.725C80.8752 134.997 82.1091 132.447 84.1245 130.596C86.14 128.744 88.7857 127.73 91.5231 127.759L176.322 126.841L355.903 124.997C361.788 125.235 367.481 130.019 367.202 136.345L367.072 203.24C366.946 206.204 365.708 209.012 363.604 211.104C361.499 213.197 358.684 214.421 355.717 214.532L259.23 214.699L252.629 532.575L252.619 533.02C252.414 535.789 251.191 538.384 249.187 540.307C247.182 542.229 244.537 543.342 241.76 543.432L189.231 545.019Z" fill="url(#paint0_linear_383_1472)"/>
</g>
<path d="M386.517 370.974C385.891 373.558 384.887 375.104 383.14 375.511C376.402 376.053 369.647 374.689 363.648 371.574C358.054 376.612 351.333 380.237 344.049 382.146C321.776 387.801 298.188 375.734 292.665 354.275C288.543 338.29 293.949 312.324 320.354 305.531C326.679 303.902 333.267 303.567 339.725 304.546C340.064 303.951 340.532 303.439 341.094 303.048C341.656 302.656 342.298 302.394 342.974 302.282L343.639 302.112L367.197 298.223C370.733 297.594 372.115 299.085 372.526 300.677L372.695 301.357C373.954 313.959 375.071 326.005 377.321 334.832C379.389 342.825 382.331 348.178 387.181 349.346C388.712 349.672 390.348 350.092 390.688 351.422C390.772 351.854 390.762 352.3 390.659 352.728L386.517 370.974ZM345.48 341.873C344.588 338.41 343.792 334.78 343.036 330.721C341.646 329.532 339.983 328.708 338.195 328.322C336.407 327.937 334.552 328.001 332.795 328.511C324.395 330.676 321.774 339.995 323.578 346.752C323.985 348.606 324.77 350.357 325.883 351.895C326.997 353.432 328.415 354.725 330.05 355.691C331.685 356.657 333.502 357.277 335.387 357.511C337.271 357.746 339.184 357.59 341.006 357.053C343.942 356.265 346.685 354.881 349.064 352.989C347.653 349.357 346.456 345.645 345.48 341.873Z" fill="url(#paint1_linear_383_1472)"/>
<path d="M433.208 522.437L432.885 522.43C432.063 522.34 431.304 521.952 430.75 521.338C430.196 520.725 429.888 519.93 429.883 519.104L428.983 484.744C428.517 468.286 425.241 461.389 415.004 460.362L416.678 519.472C416.706 520.351 416.394 521.207 415.806 521.861C415.219 522.515 414.401 522.918 413.524 522.984L383.051 523.846L382.728 523.839C381.904 523.756 381.14 523.369 380.585 522.755C380.03 522.14 379.724 521.341 379.725 520.513L377.435 435.827L377.442 435.504C377.449 434.691 377.763 433.911 378.32 433.319C378.878 432.727 379.639 432.367 380.45 432.312L390.224 432.021C398.097 429.542 406.319 428.344 414.573 428.472C421.562 428.536 428.478 429.893 434.972 432.475C444.441 429.011 454.456 427.276 464.539 427.351C493.195 427.986 513.811 446.459 514.968 476.121C515.395 486.706 517.017 494.72 524.539 500.928C525.505 501.764 527.421 503.436 527.381 505.218C527.361 505.721 527.23 506.214 526.997 506.661C526.763 507.107 526.434 507.497 526.032 507.801C526.025 508.124 511.897 520.999 511.897 520.999C510.602 522.348 508.827 523.131 506.957 523.18C504.682 523.13 479.228 517.539 477.955 485.446C477.515 467.866 474.231 461.276 464.974 459.779L466.684 517.937C466.708 518.815 466.395 519.668 465.808 520.322C465.221 520.975 464.406 521.379 463.53 521.449L433.208 522.437Z" fill="url(#paint2_linear_383_1472)"/>
<path d="M433.882 392.853C430.476 393.885 428.757 393.724 427.04 391.38L414.871 375.523C414.59 375.179 414.361 374.796 414.189 374.386C413.487 372.065 416.483 370.84 418.341 370.282C427.402 367.408 430.419 361.772 429.378 358.075C428.776 356.064 426.018 354.204 423.035 352.078L417.466 348.696C408.363 343.022 403.585 337.228 401.823 331.364C396.58 313.924 418.963 297.111 439.184 291.057C445.208 289.239 446.912 289.4 448.841 291.856L461.18 307.654C461.557 308.068 461.821 308.572 461.948 309.116C462.464 310.803 460.947 311.938 458.934 312.539L458.315 312.725C449.025 315.501 446.441 319.656 447.326 322.734C448.114 325.365 451.31 327.588 459.126 332.311C468.554 337.9 473.727 343.918 475.489 349.782C480.961 367.981 456.226 386.14 435.601 392.354L433.882 392.853Z" fill="url(#paint3_linear_383_1472)"/>
<path d="M578.435 521.644C542.262 514.57 525.671 490.084 528.466 465.306C531.105 441.984 550.34 419.399 587.53 423.575C628.003 428.146 625.723 464.388 625.112 469.769C624.269 477.267 620.463 483.116 610.479 485.278C600.994 486.999 591.329 487.518 581.714 486.823C580.752 486.831 579.825 486.464 579.13 485.8C578.436 485.136 578.028 484.227 577.993 483.266C576.579 477.67 574.73 466.716 574.806 466.072C575.015 464.278 576.399 463.602 578.589 463.358C587.286 462.352 588.459 462.163 588.725 459.878C588.897 458.345 586.373 452.847 579.533 451.989C571.693 451.108 564.405 457.218 563.258 467.322C561.956 478.899 568.966 492.904 589.357 495.201C599.307 497.327 686.448 479.584 687.602 479.548L687.925 479.555C690.211 479.821 692.817 481.6 692.509 484.376C692.507 484.483 692.504 484.621 692.5 484.806C690.635 499.552 674.154 501.308 660.126 506.192C644.624 511.644 625.991 519.577 599.98 521.768C593.484 522.376 586.945 522.396 580.445 521.826L578.435 521.644Z" fill="url(#paint4_linear_383_1472)"/>
<path d="M622.23 380.612C621.373 382.5 620.363 383.645 618.864 383.95C617.937 384.09 616.988 383.957 616.135 383.567C606.819 379.887 560.614 361.907 552.01 358.704C551.413 358.466 550.88 358.091 550.456 357.608C550.031 357.126 549.725 356.551 549.565 355.929C549.427 355.024 549.622 354.1 550.115 353.328L558.442 337.772C551.713 343.664 545.6 348.816 542.924 350.924L542.125 351.552L548.733 376.816C548.856 377.224 548.893 377.653 548.842 378.077C548.79 378.5 548.651 378.908 548.433 379.275C548.215 379.642 547.923 379.959 547.576 380.207C547.229 380.455 546.834 380.628 546.416 380.715L516.819 388.544C515.998 388.721 515.141 388.583 514.418 388.157C513.694 387.731 513.159 387.047 512.917 386.244L481.494 265.541L481.5 265.249C481.383 264.487 481.543 263.708 481.949 263.052C482.355 262.396 482.982 261.906 483.718 261.671L513.28 254.025L513.587 254.032C514.375 253.902 515.182 254.074 515.848 254.514C516.514 254.953 516.99 255.628 517.18 256.402L533.553 319.189C538.701 313.155 560.452 288.735 567.034 287.39C567.837 287.274 568.656 287.377 569.404 287.688C570.153 288 570.803 288.508 571.286 289.16L587.815 306.758C588.547 307.428 589.063 308.301 589.297 309.265C589.424 310.09 589.309 310.934 588.968 311.695C588.626 312.457 588.072 313.103 587.372 313.557C584.008 316.111 576.406 322.537 568.49 329.264C579.595 334.121 625.722 352.145 631.043 357.735C631.211 358.823 631.058 359.936 630.603 360.938L622.23 380.612Z" fill="url(#paint5_linear_383_1472)"/>
<path d="M320.489 531.928C319.499 531.939 318.545 531.561 317.832 530.875C317.119 530.189 316.704 529.25 316.678 528.262L314.346 406.605C314.334 405.616 314.713 404.662 315.399 403.95C316.085 403.237 317.025 402.823 318.014 402.798L346.295 402.318C347.285 402.31 348.238 402.689 348.953 403.374C349.667 404.059 350.086 404.995 350.12 405.984L352.452 527.64C352.456 528.629 352.076 529.58 351.391 530.293C350.707 531.006 349.772 531.426 348.784 531.463L320.489 531.928Z" fill="url(#paint6_linear_383_1472)"/>
</g>
<defs>
<filter id="filter0_f_383_1472" x="69.0342" y="51.3909" width="1047.68" height="543.623" filterUnits="userSpaceOnUse" color-interpolation-filters="sRGB">
<feFlood flood-opacity="0" result="BackgroundImageFix"/>
<feBlend mode="normal" in="SourceGraphic" in2="BackgroundImageFix" result="shape"/>
<feGaussianBlur stdDeviation="4" result="effect1_foregroundBlur_383_1472"/>
</filter>
<filter id="filter1_d_383_1472" x="-16.6184" y="-20.982" width="1158.59" height="654.539" filterUnits="userSpaceOnUse" color-interpolation-filters="sRGB">
<feFlood flood-opacity="0" result="BackgroundImageFix"/>
<feColorMatrix in="SourceAlpha" type="matrix" values="0 0 0 0 0 0 0 0 0 0 0 0 0 0 0 0 0 0 127 0" result="hardAlpha"/>
<feOffset dy="3.43838"/>
<feGaussianBlur stdDeviation="33.954"/>
<feComposite in2="hardAlpha" operator="out"/>
<feColorMatrix type="matrix" values="0 0 0 0 0.54902 0 0 0 0 0.431373 0 0 0 0 0.74902 0 0 0 1 0"/>
<feBlend mode="normal" in2="BackgroundImageFix" result="effect1_dropShadow_383_1472"/>
<feBlend mode="normal" in="SourceGraphic" in2="effect1_dropShadow_383_1472" result="shape"/>
</filter>
<filter id="filter2_d_383_1472" x="735.598" y="210.433" width="129.255" height="113.254" filterUnits="userSpaceOnUse" color-interpolation-filters="sRGB">
<feFlood flood-opacity="0" result="BackgroundImageFix"/>
<feColorMatrix in="SourceAlpha" type="matrix" values="0 0 0 0 0 0 0 0 0 0 0 0 0 0 0 0 0 0 127 0" result="hardAlpha"/>
<feOffset dy="4.83049"/>
<feGaussianBlur stdDeviation="24.1524"/>
<feComposite in2="hardAlpha" operator="out"/>
<feColorMatrix type="matrix" values="0 0 0 0 0.482353 0 0 0 0 0.368627 0 0 0 0 0.92549 0 0 0 1 0"/>
<feBlend mode="normal" in2="BackgroundImageFix" result="effect1_dropShadow_383_1472"/>
<feBlend mode="normal" in="SourceGraphic" in2="effect1_dropShadow_383_1472" result="shape"/>
</filter>
<filter id="filter3_d_383_1472" x="49.0672" y="98.4289" width="349.543" height="482.819" filterUnits="userSpaceOnUse" color-interpolation-filters="sRGB">
<feFlood flood-opacity="0" result="BackgroundImageFix"/>
<feColorMatrix in="SourceAlpha" type="matrix" values="0 0 0 0 0 0 0 0 0 0 0 0 0 0 0 0 0 0 127 0" result="hardAlpha"/>
<feOffset dy="4.83049"/>
<feGaussianBlur stdDeviation="15.6991"/>
<feComposite in2="hardAlpha" operator="out"/>
<feColorMatrix type="matrix" values="0 0 0 0 0.482353 0 0 0 0 0.368627 0 0 0 0 0.92549 0 0 0 1 0"/>
<feBlend mode="normal" in2="BackgroundImageFix" result="effect1_dropShadow_383_1472"/>
<feBlend mode="normal" in="SourceGraphic" in2="effect1_dropShadow_383_1472" result="shape"/>
</filter>
<linearGradient id="paint0_linear_383_1472" x1="224.946" y1="122.093" x2="215.557" y2="545.603" gradientUnits="userSpaceOnUse">
<stop stop-color="#9670BD"/>
<stop offset="1" stop-color="#435ACB"/>
</linearGradient>
<linearGradient id="paint1_linear_383_1472" x1="342.201" y1="297.486" x2="340.289" y2="383.709" gradientUnits="userSpaceOnUse">
<stop stop-color="#9670BD"/>
<stop offset="1" stop-color="#435ACB"/>
</linearGradient>
<linearGradient id="paint2_linear_383_1472" x1="453.371" y1="427.103" x2="451.192" y2="525.356" gradientUnits="userSpaceOnUse">
<stop stop-color="#9670BD"/>
<stop offset="1" stop-color="#435ACB"/>
</linearGradient>
<linearGradient id="paint3_linear_383_1472" x1="439.782" y1="289.715" x2="437.479" y2="393.61" gradientUnits="userSpaceOnUse">
<stop stop-color="#9670BD"/>
<stop offset="1" stop-color="#435ACB"/>
</linearGradient>
<linearGradient id="paint4_linear_383_1472" x1="548.214" y1="432.799" x2="688.216" y2="494.294" gradientUnits="userSpaceOnUse">
<stop stop-color="#9670BD"/>
<stop offset="0.51176" stop-color="#435ACB"/>
<stop offset="1"/>
</linearGradient>
<linearGradient id="paint5_linear_383_1472" x1="557.544" y1="254.952" x2="554.562" y2="389.472" gradientUnits="userSpaceOnUse">
<stop stop-color="#9670BD"/>
<stop offset="1" stop-color="#435ACB"/>
</linearGradient>
<linearGradient id="paint6_linear_383_1472" x1="334.841" y1="402.062" x2="331.956" y2="532.184" gradientUnits="userSpaceOnUse">
<stop stop-color="#9670BD"/>
<stop offset="1" stop-color="#435ACB"/>
</linearGradient>
<clipPath id="clip0_383_1472">
<rect width="1123.57" height="632.341" fill="white"/>
</clipPath>
</defs>
</svg>
