<svg width="583" height="533" viewBox="0 0 583 533" fill="none" xmlns="http://www.w3.org/2000/svg">
<path d="M79.8398 65.7858C58.5399 102.039 75.6706 112.119 94.8373 117.285C94.8373 117.285 130.837 218.285 104.837 301.285C84.0372 367.685 82.0065 402.952 85.8398 416.786C87.8398 442.386 132.173 449.786 149.84 446.786C134.64 465.186 152.84 484.119 163.84 491.286C201.5 512.26 230.5 486.785 248.837 477.285C298.037 514.485 320.335 500.785 332.337 486.785C344.34 472.786 335.673 455.286 327.34 442.286C347.34 441.086 361.84 435.286 368.84 428.286C375.84 421.286 369.34 414.286 365.837 405.785C362.335 397.285 365.837 368.286 377.837 359.785C377.837 359.785 392.835 370.785 413.837 348.285C434.84 325.786 404.337 286.285 404.337 286.285C412.337 284.285 484.34 219.786 484.34 219.786C512.84 203.786 530.34 143.786 490.837 111.785C451.335 79.785 421.004 103.119 404.337 123.285C408.337 109.285 395.635 59.983 367 41.2601C341 24.26 103.341 25.786 79.8398 65.7858Z" fill="white" stroke="white" stroke-width="27"/>
<path d="M106.679 88.6545C106.196 88.0924 105.52 87.7306 104.785 87.64C104.049 87.5494 103.306 87.7366 102.701 88.1647C99.6786 90.2247 96.7764 92.2427 93.8735 94.2905C92.074 95.5744 90.2298 96.8572 88.0297 94.7261C87.2484 93.9229 86.7348 92.8979 86.5595 91.7915C86.3842 90.6851 86.5557 89.5517 87.0505 88.5466C90.1766 81.8036 93.0692 74.8472 97.2224 68.7665C99.6218 65.2648 104.244 62.8685 108.347 61.0407C121.454 55.2181 135.419 55.6913 149.476 53.3553C182.651 47.9951 216.265 45.8364 249.855 46.9091C277.36 47.5189 304.872 49.1105 332.303 50.388C341.223 50.8088 350.267 51.7381 359.259 52.2647C365.086 52.6021 368.943 55.1419 372.028 60.3269C381.197 75.7165 385.84 92.5229 388.34 109.981C390.145 122.589 391.261 135.332 392.692 147.976C392.689 148.125 392.88 148.248 393.456 149.109C396.821 145.688 399.992 142.278 403.352 139.08C411.309 131.492 419.309 123.965 427.353 116.498C444.067 101.028 464.732 100.698 481.793 115.905C490.419 123.533 498.191 132.154 501.435 143.56C506.559 161.522 503.361 178.2 490.583 192.017C481.432 202.003 471.054 210.92 461.186 220.34C438.888 241.561 416.56 262.773 394.202 283.973C393.948 284.233 393.713 284.512 393.499 284.805C396.846 288.895 400.485 292.591 403.246 296.921C408.686 305.311 412.863 314.269 413.722 324.506C415.3 343.312 401.7 355.252 383.372 350.859C379.314 349.66 375.326 348.236 371.427 346.593C369.322 353.582 366.873 360.667 365.001 367.899C362.829 376.612 361.07 385.438 359.372 394.25C358.314 400.597 359.208 407.115 361.934 412.944C362.33 413.89 362.755 414.836 363.136 415.797C365.125 420.705 364.11 424.193 359.799 427.325C354.657 431.048 348.636 432.075 342.537 432.639C308.237 435.76 273.71 435.01 239.277 434.068C226.142 433.777 212.945 433.588 199.911 432.109C190.692 431.072 182.624 434.478 174.062 435.999C171.836 436.381 169.679 437.032 167.481 437.504C163.144 438.419 159.448 436.627 157.961 432.533C157.274 430.644 156.224 430.367 154.456 430.194C141.492 428.896 128.478 426.495 115.654 424.292C102.591 422.054 95.8798 411.285 95.7748 397.896C95.7088 389.461 97.764 381.341 100.011 373.299C105.311 354.437 111.226 337.33 115.949 318.336C124.105 286.106 126.813 253.25 126.343 220.041C126.07 200.119 125.559 180.236 123.468 160.407C121.537 142.114 119.328 122.282 114.603 104.448C113.223 98.6403 110.51 93.2332 106.679 88.6545ZM175.961 320.128C178.634 306.295 185.431 295.795 199.477 291.898C213.524 288 225.108 292.466 234.235 303.69L322.454 218.082C299.071 221.505 285.219 205.908 284.387 189.707C283.473 172.551 297.359 158.417 315.064 158.69C318.976 158.657 322.852 159.448 326.438 161.011C330.024 162.574 333.24 164.875 335.877 167.764C343.492 176.039 345.895 185.834 343.406 197.381C345.284 195.899 346.989 194.21 348.489 192.347C355.88 182.882 364.511 174.453 374.152 167.288C381.6 161.623 384.443 156.911 383.497 148.561C381.643 132.158 380.52 115.668 376.949 99.51C374.38 87.8216 370.836 76.4982 364.411 66.2266C363.703 64.8997 362.643 63.793 361.347 63.0272C360.052 62.2614 358.571 61.866 357.066 61.8842C339.999 61.0745 322.88 59.9067 305.889 58.9648C276.532 57.3323 247.179 56.1758 217.765 57.0855C193.251 57.8212 168.948 58.4575 144.84 63.0545C134.243 65.0805 123.764 65.8298 113.858 70.2807C112.279 71.0681 110.766 71.9795 109.332 73.0064C109.186 73.0961 109.064 73.2211 108.979 73.3699C108.893 73.5188 108.847 73.6866 108.843 73.8582C108.839 74.0298 108.878 74.1996 108.957 74.3521C109.036 74.5045 109.152 74.6348 109.294 74.7309C110.762 75.6708 112.01 76.4273 113.137 77.2852C119.956 82.5233 123.239 91.5502 125.653 99.4572C130.163 114.223 132.221 129.47 134.189 144.715C137.757 172.415 138.539 200.276 138.634 228.197C138.952 261.651 134.773 294.996 126.212 327.339C121.526 344.697 116.18 360.256 111.569 377.586C109.905 384.214 108.872 390.984 108.487 397.806C108.004 404.816 111.372 410.662 118.216 412.107C124.615 413.454 131.16 414.269 137.663 414.993C145.68 415.87 153.684 418.025 161.854 418.742C162.616 416.602 163.254 414.653 163.966 412.75C171.181 393.415 178.411 374.09 185.656 354.776C185.938 354.044 186.039 353.255 185.95 352.476C185.861 351.698 185.585 350.952 185.145 350.302C182.645 346.404 180.345 342.382 178.253 338.25C178.018 337.666 177.613 337.164 177.09 336.811C176.568 336.458 175.952 336.268 175.321 336.267C164.708 335.005 155.524 331.009 148.678 322.289C137.183 307.755 138.636 289.894 142.201 273.389C142.947 269.969 146.517 270.063 149.8 270.984C152.759 271.808 154.178 274.933 153.767 279.372C153.356 283.81 153.027 288.547 153.06 293.144C153.11 299.601 155.423 305.836 159.596 310.766C163.769 315.695 169.539 319.007 175.902 320.126L175.961 320.128ZM351.396 328.39C327.063 351.887 302.769 375.375 278.515 398.854C270.043 407.07 261.776 415.439 249.395 417.395C248.305 417.565 247.229 417.749 246.167 418.023L234.761 420.923C235.882 421.487 237.12 421.779 238.374 421.777C244.581 421.984 250.777 422.176 256.965 422.353C286.609 423.159 316.249 423.444 345.829 420.411C348.484 420.142 351.102 419.546 353.88 419.102C352.764 415.745 351.65 412.954 350.924 410.112C348.73 400.925 348.871 391.336 351.334 382.217C354.746 368.594 358.855 355.135 362.653 341.595C362.912 340.619 362.992 339.029 362.424 338.466C358.737 334.948 354.984 331.697 351.307 328.388L351.396 328.39ZM388.314 193.081C385.239 190.157 380.882 185.271 380.882 185.271C380.882 185.271 379.431 183.573 378.791 182.905L376.051 180.286L375.158 180.98L207.074 344.645C209.211 345.6 210.713 346.318 212.247 346.947C214.591 347.921 216.169 349.265 216.135 352.135C216.178 354.196 216.422 356.249 216.862 358.264M408.865 197.211C416.629 205.489 417.07 203.714 424.835 211.978L437.817 221.83C438.637 222.551 439.69 222.954 440.782 222.965C441.875 222.976 442.935 222.593 443.769 221.887C444.603 221.181 447.45 217.626 447.45 217.626C449.078 216.454 450.575 215.111 451.915 213.619L452.786 212.597C453.398 211.9 454.126 211.312 454.937 210.86C455.904 210.378 456.819 209.801 457.669 209.136L459.433 208.119C459.001 207.5 458.395 206.609 457.991 206.034C457.391 205.081 455.825 204.028 455.108 203.159C450.432 198.594 448.984 196.137 443.143 191.739C433.33 181.883 423.893 173.195 415.891 161.55C413.778 158.126 411.26 154.969 408.391 152.147C408.13 151.839 407.801 151.596 407.429 151.439C407.057 151.282 406.653 151.215 406.251 151.244C405.848 151.273 405.458 151.396 405.112 151.604C404.766 151.813 404.475 152.1 404.261 152.442C403.33 153.522 402.806 154.983 401.54 155.684C399.17 157.07 397.032 158.82 395.204 160.868C385.209 171.356 383.321 169.901 387.712 174.595M374.547 288.416C366.083 288.228 359.155 291.228 355.452 299.193C351.638 307.393 353.721 314.817 359.802 321.124C365.649 327.363 372.468 332.613 379.996 336.669C382.652 338.046 385.461 339.107 388.365 339.829C395.765 341.689 401.669 338.533 403.512 331.94C404.01 330.033 404.2 328.059 404.073 326.092C403.407 314.49 398.597 304.582 391.185 295.865C389.153 293.45 386.601 291.525 383.72 290.236C380.839 288.946 377.703 288.324 374.547 288.416ZM195.424 410.264C195.889 410.879 196.545 411.323 197.29 411.525C198.034 411.728 198.824 411.677 199.537 411.382C213.677 407.307 227.845 403.308 241.999 399.249C243.101 398.848 244.176 398.375 245.215 397.833L244.979 397.084C241.174 396.181 237.386 395.19 233.548 394.436C232.807 394.385 232.114 394.05 231.613 393.502C231.112 392.953 230.843 392.233 230.86 391.49C230.355 387.404 229.552 383.355 229.077 379.269C228.822 377.345 228.146 376.274 226.024 375.989C220.759 375.173 215.515 374.075 210.267 373.155C209.618 373.138 209.001 372.87 208.545 372.408C208.089 371.946 207.83 371.325 207.821 370.677C207.274 366.5 206.518 362.333 205.791 358.197C205.723 357.196 205.307 356.25 204.615 355.523C202.517 354.168 200.203 353.12 197.952 351.94C197.707 352.271 197.495 352.625 197.319 352.997C192.149 366.67 186.95 380.328 181.913 394.064C181.811 394.646 181.843 395.243 182.006 395.811C182.169 396.379 182.458 396.903 182.852 397.343M428.001 130.211C427.855 130.33 427.736 130.478 427.652 130.647C427.569 130.816 427.524 131.001 427.52 131.19C427.516 131.378 427.553 131.565 427.628 131.737C427.704 131.91 427.816 132.064 427.958 132.189C428.323 132.509 428.629 132.784 428.92 133.087C438.924 143.721 459.877 165.946 469.91 176.58C476.018 183.052 476.165 183.115 482.964 177.212C488.078 172.759 492.106 167.628 492.166 160.236C492.198 155.399 490.521 150.705 487.429 146.983C482.748 141.286 468.363 122.851 461.252 119.376C458.494 116.998 455.021 115.607 451.383 115.424C447.741 115.644 444.242 116.92 441.315 119.098C436.692 122.575 432.248 126.284 428.001 130.211ZM226.461 311.311C223.782 306.733 219.475 303.33 214.399 301.782C209.323 300.233 203.849 300.652 199.068 302.955C188.973 307.862 184.047 319.95 187.387 331.745C188.595 335.976 190.795 339.859 193.803 343.072L226.461 311.311ZM461.407 197.632L462.895 197.665C463.461 196.934 463.853 196.065 464.434 195.379C468.142 191.237 468.217 191.194 464.482 187.169C456.501 178.574 448.49 170.052 440.435 161.47C434.053 154.635 427.76 147.802 421.364 140.937C420.608 140.132 418.861 139.022 418.513 139.282C416.525 140.641 414.802 142.352 413.431 144.331C413.044 144.962 414.545 147.107 415.562 148.201C423.966 157.163 432.551 165.98 440.91 174.971C447.874 182.398 454.595 190.059 461.407 197.632ZM311.526 177.948C311.512 176.509 311.074 175.107 310.269 173.914C309.463 172.721 308.325 171.791 306.996 171.24C305.666 170.688 304.204 170.538 302.79 170.809C301.376 171.081 300.073 171.761 299.043 172.766C298.013 173.771 297.3 175.056 296.994 176.461C296.688 177.867 296.802 179.332 297.321 180.674C297.841 182.016 298.743 183.176 299.916 184.01C301.089 184.844 302.482 185.315 303.921 185.365C305.895 185.34 307.784 184.552 309.191 183.166C310.597 181.781 311.413 179.905 311.467 177.932L311.526 177.948Z" fill="black"/>
<path d="M199.215 215.127C182.851 214.764 170.471 201.252 170.863 184.244C170.92 180.34 171.762 176.487 173.338 172.915C174.915 169.342 177.193 166.122 180.038 163.447C182.884 160.771 186.238 158.694 189.902 157.339C193.567 155.984 197.466 155.379 201.369 155.559C209.272 155.845 216.739 159.257 222.126 165.045C227.513 170.832 230.379 178.521 230.093 186.42C229.807 194.319 226.394 201.781 220.603 207.165C214.812 212.548 207.118 215.412 199.215 215.127ZM197.708 175.008C197.77 173.068 197.088 171.177 195.8 169.724C194.512 168.271 192.716 167.366 190.782 167.194C188.852 167.176 186.983 167.871 185.535 169.145C184.086 170.42 183.16 172.185 182.934 174.1C182.874 176.082 183.558 178.014 184.853 179.515C186.148 181.017 187.958 181.98 189.928 182.213C191.912 182.273 193.839 181.551 195.295 180.203C196.75 178.855 197.617 176.989 197.708 175.008Z" fill="black"/>
<path d="M195.215 123.698C202.561 124.025 209.614 126.671 215.362 131.254C220.483 135.25 220.08 141.994 214.642 144.283C212.704 144.87 210.639 144.897 208.687 144.359C206.989 143.824 205.374 143.058 203.886 142.081C197.249 138.691 190.44 137.663 183.293 140.509C182.103 141.096 180.752 141.269 179.452 141C178.153 140.731 176.981 140.037 176.122 139.026C175.224 137.929 174.679 136.586 174.558 135.174C174.438 133.761 174.749 132.346 175.45 131.113C176.201 129.958 177.18 128.968 178.327 128.202C183.328 124.931 189.248 123.352 195.215 123.698Z" fill="black"/>
<path d="M312.544 124.692C319.886 125.017 326.936 127.663 332.677 132.248C337.797 136.243 337.41 142.988 331.957 145.276C330.019 145.865 327.954 145.891 326.002 145.353C324.305 144.816 322.69 144.049 321.2 143.075C314.563 139.685 307.755 138.656 300.623 141.503C299.433 142.09 298.081 142.262 296.782 141.994C295.483 141.725 294.311 141.031 293.452 140.02C292.547 138.927 291.997 137.584 291.874 136.17C291.751 134.757 292.062 133.34 292.764 132.107C293.509 130.925 294.489 129.908 295.643 129.121C300.657 125.874 306.581 124.322 312.544 124.692Z" fill="black"/>
<path d="M211.404 427.946C211.404 427.946 209.94 444.275 207.705 446.412" stroke="black" stroke-width="19.3219" stroke-miterlimit="10"/>
<path d="M283.688 430.129C283.688 430.129 283.301 447.583 286.525 449.826" stroke="black" stroke-width="19.3219" stroke-miterlimit="10"/>
<path d="M319.347 469.987C320.501 460.944 310.547 452.225 297.113 450.512C283.679 448.799 271.853 454.741 270.699 463.784C269.545 472.827 279.5 481.546 292.933 483.259C306.367 484.972 318.193 479.03 319.347 469.987Z" stroke="black" stroke-width="17.6045" stroke-miterlimit="10"/>
<path d="M219.492 466.387C220.753 456.514 209.886 446.994 195.222 445.124C180.557 443.254 167.648 449.742 166.387 459.616C165.127 469.49 175.993 479.01 190.658 480.88C205.323 482.75 218.232 476.261 219.492 466.387Z" stroke="black" stroke-width="17.6045" stroke-miterlimit="10"/>
<g filter="url(#filter0_d_409_46)">
<path d="M254.49 241.31C247.932 241.076 244.137 238.374 239.706 232.177C238.868 230.981 238.431 229.549 238.457 228.089C238.724 226.845 239.456 225.749 240.504 225.026C241.548 224.261 242.712 224.807 243.549 225.986C246.261 229.839 247.501 232.335 251.767 233.263C258.166 234.639 260.49 233.843 265.266 228.55C267.28 226.304 268.805 225.98 270.17 227.528C271.535 229.075 271.455 232.018 269.562 234.133C264.524 239.867 261.78 241.427 254.49 241.31Z" fill="black"/>
</g>
<defs>
<filter id="filter0_d_409_46" x="190.151" y="181.198" width="129.255" height="113.254" filterUnits="userSpaceOnUse" color-interpolation-filters="sRGB">
<feFlood flood-opacity="0" result="BackgroundImageFix"/>
<feColorMatrix in="SourceAlpha" type="matrix" values="0 0 0 0 0 0 0 0 0 0 0 0 0 0 0 0 0 0 127 0" result="hardAlpha"/>
<feOffset dy="4.83049"/>
<feGaussianBlur stdDeviation="24.1524"/>
<feComposite in2="hardAlpha" operator="out"/>
<feColorMatrix type="matrix" values="0 0 0 0 0.482353 0 0 0 0 0.368627 0 0 0 0 0.92549 0 0 0 1 0"/>
<feBlend mode="normal" in2="BackgroundImageFix" result="effect1_dropShadow_409_46"/>
<feBlend mode="normal" in="SourceGraphic" in2="effect1_dropShadow_409_46" result="shape"/>
</filter>
</defs>
</svg>
