<svg width="1199" height="677" viewBox="0 0 1199 677" fill="none" xmlns="http://www.w3.org/2000/svg">
<g filter="url(#filter0_f_661_34)">
<path d="M945.41 526.642C955.365 583.55 902.411 552.143 851.911 561.645C832.153 565.362 794.911 561.647 761.411 552.148C694.137 568.969 618.411 560.652 603.911 554.653C585.11 554.1 578.074 571.058 572.411 572.154C556.911 575.154 542.107 569.651 487.411 572.157C481.009 572.45 448.911 569.158 433.411 572.158C417.911 575.159 411.331 576.935 405.912 577.159C384.961 578.028 395.226 570.945 364.726 567.946C333.926 569.947 330.727 582.662 323.727 589.162C316.727 595.662 235.232 598.165 233.412 589.165C231.591 580.165 235.406 411.665 235.406 411.665C235.406 411.665 236.403 307.165 226.402 285.665C216.401 264.166 135.418 288.668 130.9 239.668C126.382 190.669 140.398 161.668 152.898 160.668C165.398 159.667 419.897 145.659 442.398 171.158C464.899 196.657 454.901 271.658 412.401 271.659C369.901 271.661 373.901 269.16 347.902 277.161C347.902 277.161 325.404 349.662 347.904 353.661C370.404 357.661 376.904 341.66 402.904 338.16C428.904 334.659 455.904 340.158 455.904 340.158C470.055 335.011 475.817 326.761 514.403 328.156C531.032 328.757 530.402 299.155 571.902 292.654C613.402 286.153 605.729 327.334 614.403 328.153C627.906 329.427 640.403 310.152 654.903 316.651C660.794 319.292 659.404 355.651 677.904 361.151C756.405 379.648 717.205 213.45 713.615 191.309C628.817 199.354 668.5 144.254 696.037 121.554C728.973 88.2975 908.352 95.274 993.256 107.66C1009.9 114.64 1019.8 158.114 1025.9 178.639C1126.09 146.935 1137.21 220.363 1129.9 244.136C1122.59 267.909 1021.4 360.139 1021.4 360.139C1051.41 393.138 1029.41 446.139 986.407 430.14C970.686 450.687 979.908 473.141 979.908 473.141C979.908 473.141 988.909 491.14 983.409 503.641C983.409 503.641 962.328 527.2 945.41 526.642Z" fill="#2C1F6E" fill-opacity="0.8"/>
<path d="M945.41 526.642C955.365 583.55 902.411 552.143 851.911 561.645C832.153 565.362 794.911 561.647 761.411 552.148C694.137 568.969 618.411 560.652 603.911 554.653C585.11 554.1 578.074 571.058 572.411 572.154C556.911 575.154 542.107 569.651 487.411 572.157C481.009 572.45 448.911 569.158 433.411 572.158C417.911 575.159 411.331 576.935 405.912 577.159C384.961 578.028 395.226 570.945 364.726 567.946C333.926 569.947 330.727 582.662 323.727 589.162C316.727 595.662 235.232 598.165 233.412 589.165C231.591 580.165 235.406 411.665 235.406 411.665C235.406 411.665 236.403 307.165 226.402 285.665C216.401 264.166 135.418 288.668 130.9 239.668C126.382 190.669 140.398 161.668 152.898 160.668C165.398 159.667 419.897 145.659 442.398 171.158C464.899 196.657 454.901 271.658 412.401 271.659C369.901 271.661 373.901 269.16 347.902 277.161C347.902 277.161 325.404 349.662 347.904 353.661C370.404 357.661 376.904 341.66 402.904 338.16C428.904 334.659 455.904 340.158 455.904 340.158C470.055 335.011 475.817 326.761 514.403 328.156C531.032 328.757 530.402 299.155 571.902 292.654C613.402 286.153 605.729 327.334 614.403 328.153C627.906 329.427 640.403 310.152 654.903 316.651C660.794 319.292 659.404 355.651 677.904 361.151C756.405 379.648 717.205 213.45 713.615 191.309C628.817 199.354 668.5 144.254 696.037 121.554C728.973 88.2975 908.352 95.274 993.256 107.66C1009.9 114.64 1019.8 158.114 1025.9 178.639C1126.09 146.935 1137.21 220.363 1129.9 244.136C1122.59 267.909 1021.4 360.139 1021.4 360.139C1051.41 393.138 1029.41 446.139 986.407 430.14C970.686 450.687 979.908 473.141 979.908 473.141C979.908 473.141 988.909 491.14 983.409 503.641C983.409 503.641 962.328 527.2 945.41 526.642Z" stroke="#2C1F6E" stroke-opacity="0.8" stroke-width="30"/>
</g>
<g filter="url(#filter1_d_661_34)">
<path d="M915.215 506.289C925.171 563.197 872.216 531.79 821.717 541.292C801.959 545.009 764.717 541.294 731.216 531.795C654.261 554.856 589.762 540.856 575.261 534.856C556.461 534.303 547.88 550.705 542.217 551.801C526.717 554.801 511.912 549.298 457.217 551.804C450.815 552.097 418.717 548.805 403.217 551.805C387.717 554.806 381.137 556.582 375.717 556.806C354.767 557.675 365.032 550.592 334.532 547.593C303.732 549.594 300.533 562.309 293.533 568.809C286.533 575.309 205.038 577.812 203.218 568.812C201.397 559.812 205.212 391.312 205.212 391.312C205.212 391.312 206.208 286.812 196.208 265.312C186.207 243.813 105.224 268.315 100.706 219.315C96.1881 170.316 110.204 141.315 122.703 140.315C135.203 139.314 389.703 125.306 412.204 150.805C434.705 176.304 424.707 251.305 382.207 251.306C339.707 251.308 343.707 248.807 317.707 256.808C317.707 256.808 295.21 329.309 317.71 333.308C340.21 337.308 346.709 321.307 372.709 317.806C398.709 314.306 425.709 319.805 425.709 319.805C439.86 314.658 445.623 306.408 484.209 307.803C500.838 308.404 500.208 278.802 541.708 272.301C583.208 265.8 575.534 306.981 584.209 307.8C597.711 309.074 610.208 289.799 624.709 296.298C630.6 298.939 629.21 335.298 647.71 340.798C726.211 359.295 687.011 193.097 683.421 170.956C598.623 179.001 638.306 123.901 665.843 101.201C698.779 67.9444 878.157 74.921 963.062 87.3068C979.702 94.2867 989.607 137.761 995.704 158.286C1095.9 126.582 1107.02 200.01 1099.71 223.783C1092.39 247.556 991.21 339.786 991.21 339.786C1021.21 372.785 999.213 425.786 956.212 409.787C940.491 430.334 949.714 452.788 949.714 452.788C949.714 452.788 958.714 470.787 953.215 483.288C953.215 483.288 932.133 506.847 915.215 506.289Z" fill="white"/>
<path d="M915.215 506.289C925.171 563.197 872.216 531.79 821.717 541.292C801.959 545.009 764.717 541.294 731.216 531.795C654.261 554.856 589.762 540.856 575.261 534.856C556.461 534.303 547.88 550.705 542.217 551.801C526.717 554.801 511.912 549.298 457.217 551.804C450.815 552.097 418.717 548.805 403.217 551.805C387.717 554.806 381.137 556.582 375.717 556.806C354.767 557.675 365.032 550.592 334.532 547.593C303.732 549.594 300.533 562.309 293.533 568.809C286.533 575.309 205.038 577.812 203.218 568.812C201.397 559.812 205.212 391.312 205.212 391.312C205.212 391.312 206.208 286.812 196.208 265.312C186.207 243.813 105.224 268.315 100.706 219.315C96.1881 170.316 110.204 141.315 122.703 140.315C135.203 139.314 389.703 125.306 412.204 150.805C434.705 176.304 424.707 251.305 382.207 251.306C339.707 251.308 343.707 248.807 317.707 256.808C317.707 256.808 295.21 329.309 317.71 333.308C340.21 337.308 346.709 321.307 372.709 317.806C398.709 314.306 425.709 319.805 425.709 319.805C439.86 314.658 445.623 306.408 484.209 307.803C500.838 308.404 500.208 278.802 541.708 272.301C583.208 265.8 575.534 306.981 584.209 307.8C597.711 309.074 610.208 289.799 624.709 296.298C630.6 298.939 629.21 335.298 647.71 340.798C726.211 359.295 687.011 193.097 683.421 170.956C598.623 179.001 638.306 123.901 665.843 101.201C698.779 67.9444 878.157 74.921 963.062 87.3068C979.702 94.2867 989.607 137.761 995.704 158.286C1095.9 126.582 1107.02 200.01 1099.71 223.783C1092.39 247.556 991.21 339.786 991.21 339.786C1021.21 372.785 999.213 425.786 956.212 409.787C940.491 430.334 949.714 452.788 949.714 452.788C949.714 452.788 958.714 470.787 953.215 483.288C953.215 483.288 932.133 506.847 915.215 506.289Z" stroke="white" stroke-width="21.1"/>
</g>
<path d="M690.126 140.89C689.643 140.327 688.968 139.966 688.232 139.875C687.496 139.785 686.753 139.972 686.148 140.4C683.126 142.46 680.224 144.478 677.321 146.526C675.521 147.809 673.677 149.092 671.477 146.961C670.696 146.158 670.182 145.133 670.007 144.027C669.831 142.92 670.003 141.787 670.498 140.782C673.624 134.039 676.517 127.082 680.67 121.002C683.069 117.5 687.691 115.104 691.795 113.276C704.902 107.453 718.866 107.926 732.923 105.59C766.098 100.23 799.713 98.0715 833.302 99.1442C860.807 99.754 888.32 101.346 915.75 102.623C924.671 103.044 933.714 103.973 942.706 104.5C948.533 104.837 952.391 107.377 955.476 112.562C964.645 127.952 969.288 144.758 971.788 162.216C973.592 174.825 974.708 187.567 976.14 200.211C976.136 200.36 976.327 200.483 976.903 201.344C980.268 197.923 983.439 194.513 986.799 191.315C994.756 183.727 1002.76 176.2 1010.8 168.733C1027.51 153.263 1048.18 152.933 1065.24 168.14C1073.87 175.768 1081.64 184.389 1084.88 195.795C1090.01 213.757 1086.81 230.435 1074.03 244.252C1064.88 254.238 1054.5 263.155 1044.63 272.575C1022.34 293.797 1000.01 315.008 977.649 336.208C977.395 336.469 977.16 336.747 976.946 337.04C980.293 341.131 983.932 344.826 986.694 349.156C992.133 357.546 996.31 366.504 997.17 376.741C998.747 395.547 985.147 407.487 966.82 403.094C962.762 401.895 958.774 400.471 954.874 398.829C952.77 405.817 950.32 412.903 948.449 420.134C946.276 428.847 944.518 437.673 942.819 446.485C941.762 452.832 942.655 459.35 945.381 465.179C945.777 466.125 946.202 467.072 946.583 468.032C948.573 472.94 947.558 476.428 943.247 479.56C938.104 483.283 932.083 484.31 925.984 484.874C891.684 487.995 857.158 487.245 822.725 486.303C809.589 486.012 796.392 485.823 783.358 484.345C774.139 483.307 766.071 486.713 757.51 488.234C755.284 488.616 753.126 489.267 750.928 489.739C746.591 490.654 742.896 488.862 741.409 484.768C740.721 482.879 739.671 482.603 737.904 482.429C724.94 481.131 711.926 478.73 699.101 476.527C686.039 474.289 679.327 463.52 679.222 450.131C679.156 441.696 681.211 433.576 683.458 425.534C688.758 406.673 694.674 389.565 699.396 370.571C707.552 338.342 710.26 305.485 709.79 272.276C709.518 252.354 709.006 232.471 706.916 212.642C704.984 194.349 702.775 174.518 698.051 156.683C696.671 150.875 693.958 145.468 690.126 140.89ZM759.409 372.363C762.082 358.53 768.878 348.031 782.924 344.133C796.971 340.235 808.555 344.701 817.682 355.925L905.901 270.317C882.518 273.741 868.666 258.143 867.835 241.942C866.92 224.787 880.807 210.652 898.511 210.925C902.423 210.892 906.299 211.683 909.885 213.246C913.471 214.809 916.687 217.11 919.325 219.999C926.94 228.274 929.342 238.07 926.854 249.616C928.731 248.134 930.436 246.445 931.936 244.582C939.327 235.117 947.959 226.688 957.599 219.523C965.047 213.858 967.89 209.146 966.944 200.796C965.09 184.393 963.967 167.903 960.396 151.745C957.828 140.057 954.284 128.733 947.859 118.462C947.15 117.135 946.09 116.028 944.795 115.262C943.499 114.497 942.018 114.101 940.514 114.119C923.446 113.31 906.327 112.142 889.337 111.2C859.979 109.567 830.626 108.411 801.212 109.321C776.699 110.056 752.396 110.693 728.288 115.29C717.691 117.316 707.211 118.065 697.305 122.516C695.727 123.303 694.214 124.215 692.78 125.241C692.633 125.331 692.512 125.456 692.426 125.605C692.341 125.754 692.294 125.922 692.29 126.093C692.286 126.265 692.326 126.435 692.404 126.587C692.483 126.74 692.599 126.87 692.741 126.966C694.209 127.906 695.457 128.662 696.584 129.52C703.403 134.758 706.686 143.785 709.1 151.692C713.61 166.458 715.668 181.705 717.637 196.95C721.205 224.65 721.986 252.511 722.082 280.432C722.399 313.886 718.221 347.232 709.659 379.574C704.973 396.933 699.627 412.491 695.017 429.821C693.352 436.449 692.32 443.219 691.934 450.041C691.451 457.051 694.819 462.897 701.663 464.342C708.062 465.689 714.608 466.504 721.11 467.228C729.128 468.105 737.132 470.26 745.301 470.977C746.063 468.837 746.702 466.888 747.414 464.985C754.629 445.65 761.859 426.325 769.103 407.011C769.385 406.279 769.486 405.491 769.397 404.712C769.308 403.933 769.032 403.187 768.592 402.537C766.092 398.64 763.792 394.617 761.701 390.485C761.465 389.901 761.06 389.399 760.538 389.046C760.015 388.693 759.399 388.503 758.768 388.502C748.155 387.24 738.971 383.244 732.125 374.524C720.63 359.991 722.083 342.129 725.649 325.624C726.394 322.204 729.964 322.299 733.248 323.219C736.206 324.043 737.625 327.169 737.214 331.607C736.803 336.045 736.475 340.782 736.507 345.379C736.557 351.836 738.87 358.071 743.043 363.001C747.216 367.93 752.986 371.242 759.349 372.361L759.409 372.363ZM934.843 380.625C910.51 404.122 886.216 427.61 861.963 451.089C853.491 459.305 845.224 467.674 832.842 469.631C831.752 469.8 830.677 469.984 829.614 470.258L818.209 473.158C819.329 473.722 820.567 474.014 821.821 474.012C828.028 474.219 834.225 474.411 840.412 474.588C870.056 475.394 899.696 475.679 929.276 472.646C931.931 472.378 934.549 471.781 937.327 471.337C936.211 467.981 935.097 465.189 934.371 462.347C932.177 453.16 932.318 443.571 934.781 434.453C938.194 420.829 942.302 407.37 946.1 393.83C946.36 392.854 946.439 391.264 945.871 390.701C942.184 387.184 938.431 383.932 934.754 380.623L934.843 380.625ZM971.761 245.317C968.686 242.393 964.329 237.507 964.329 237.507C964.329 237.507 962.879 235.808 962.239 235.14L959.499 232.521L958.605 233.215L790.521 396.881C792.658 397.835 794.16 398.553 795.694 399.182C798.039 400.156 799.616 401.5 799.582 404.37C799.626 406.432 799.869 408.484 800.31 410.499M992.312 249.446C1000.08 257.724 1000.52 255.949 1008.28 264.213L1021.26 274.065C1022.08 274.787 1023.14 275.19 1024.23 275.2C1025.32 275.211 1026.38 274.828 1027.22 274.122C1028.05 273.416 1030.9 269.861 1030.9 269.861C1032.53 268.69 1034.02 267.346 1035.36 265.854L1036.23 264.833C1036.85 264.135 1037.57 263.547 1038.38 263.095C1039.35 262.614 1040.27 262.036 1041.12 261.371L1042.88 260.354C1042.45 259.735 1041.84 258.844 1041.44 258.27C1040.84 257.316 1039.27 256.263 1038.56 255.395C1033.88 250.829 1032.43 248.372 1026.59 243.974C1016.78 234.118 1007.34 225.43 999.339 213.785C997.225 210.361 994.707 207.204 991.838 204.382C991.578 204.074 991.248 203.831 990.876 203.674C990.504 203.517 990.101 203.45 989.698 203.479C989.295 203.508 988.905 203.631 988.559 203.84C988.214 204.048 987.922 204.335 987.709 204.677C986.777 205.757 986.253 207.218 984.988 207.919C982.617 209.305 980.479 211.055 978.652 213.103C968.656 223.591 966.768 222.136 971.159 226.83M957.994 340.651C949.53 340.464 942.603 343.463 938.899 351.428C935.086 359.628 937.168 367.052 943.25 373.359C949.096 379.598 955.916 384.848 963.443 388.904C966.099 390.282 968.908 391.342 971.812 392.065C979.212 393.924 985.116 390.768 986.959 384.175C987.457 382.268 987.647 380.294 987.52 378.327C986.855 366.726 982.044 356.817 974.632 348.1C972.6 345.685 970.048 343.761 967.167 342.471C964.286 341.181 961.15 340.559 957.994 340.651ZM778.872 462.499C779.336 463.115 779.992 463.558 780.737 463.76C781.481 463.963 782.272 463.912 782.984 463.617C797.124 459.542 811.292 455.543 825.446 451.484C826.548 451.084 827.623 450.61 828.662 450.068L828.426 449.319C824.621 448.416 820.833 447.425 816.995 446.671C816.254 446.62 815.561 446.285 815.06 445.737C814.56 445.188 814.29 444.468 814.307 443.726C813.802 439.639 812.999 435.59 812.524 431.504C812.269 429.58 811.593 428.509 809.472 428.224C804.206 427.408 798.962 426.31 793.714 425.39C793.065 425.373 792.448 425.105 791.992 424.643C791.536 424.181 791.277 423.561 791.268 422.912C790.721 418.735 789.965 414.568 789.238 410.432C789.171 409.431 788.755 408.485 788.062 407.759C785.964 406.403 783.651 405.355 781.4 404.175C781.155 404.506 780.943 404.86 780.766 405.232C775.596 418.905 770.397 432.563 765.36 446.299C765.259 446.881 765.29 447.478 765.453 448.046C765.616 448.614 765.905 449.138 766.299 449.578M1011.45 182.446C1011.3 182.565 1011.18 182.713 1011.1 182.882C1011.02 183.051 1010.97 183.237 1010.97 183.425C1010.96 183.613 1011 183.8 1011.08 183.973C1011.15 184.145 1011.26 184.299 1011.4 184.424C1011.77 184.744 1012.08 185.019 1012.37 185.323C1022.37 195.956 1043.32 218.181 1053.36 228.816C1059.47 235.287 1059.61 235.35 1066.41 229.447C1071.53 224.994 1075.55 219.863 1075.61 212.472C1075.65 207.634 1073.97 202.94 1070.88 199.218C1066.2 193.522 1051.81 175.086 1044.7 171.612C1041.94 169.233 1038.47 167.843 1034.83 167.659C1031.19 167.879 1027.69 169.156 1024.76 171.333C1020.14 174.81 1015.7 178.519 1011.45 182.446ZM809.908 363.546C807.229 358.968 802.922 355.565 797.846 354.017C792.77 352.468 787.297 352.887 782.516 355.19C772.42 360.098 767.494 372.185 770.834 383.98C772.042 388.211 774.242 392.094 777.251 395.307L809.908 363.546ZM1044.85 249.867L1046.34 249.9C1046.91 249.169 1047.3 248.3 1047.88 247.614C1051.59 243.472 1051.66 243.429 1047.93 239.404C1039.95 230.809 1031.94 222.287 1023.88 213.705C1017.5 206.87 1011.21 200.037 1004.81 193.172C1004.06 192.367 1002.31 191.257 1001.96 191.517C999.972 192.876 998.249 194.587 996.878 196.566C996.492 197.197 997.992 199.342 999.01 200.436C1007.41 209.398 1016 218.215 1024.36 227.206C1031.32 234.634 1038.04 242.294 1044.85 249.867ZM894.974 230.183C894.959 228.744 894.522 227.342 893.716 226.149C892.911 224.956 891.773 224.027 890.443 223.475C889.114 222.923 887.651 222.773 886.237 223.044C884.824 223.316 883.521 223.996 882.49 225.001C881.46 226.006 880.747 227.291 880.441 228.697C880.135 230.102 880.249 231.567 880.769 232.909C881.288 234.251 882.19 235.411 883.363 236.245C884.537 237.079 885.929 237.55 887.368 237.6C889.343 237.575 891.231 236.787 892.638 235.401C894.045 234.016 894.86 232.14 894.914 230.167L894.974 230.183Z" fill="black"/>
<path d="M782.662 267.362C766.299 266.999 753.918 253.486 754.31 236.479C754.367 232.575 755.209 228.722 756.786 225.15C758.362 221.577 760.64 218.357 763.486 215.682C766.331 213.006 769.685 210.929 773.35 209.574C777.014 208.219 780.913 207.614 784.816 207.794C792.72 208.08 800.186 211.492 805.573 217.279C810.96 223.067 813.826 230.756 813.54 238.655C813.255 246.554 809.841 254.016 804.05 259.4C798.259 264.783 790.566 267.647 782.662 267.362ZM781.155 227.243C781.218 225.303 780.535 223.412 779.247 221.959C777.959 220.506 776.164 219.601 774.229 219.429C772.299 219.411 770.431 220.105 768.982 221.38C767.534 222.655 766.607 224.419 766.382 226.335C766.321 228.316 767.006 230.248 768.3 231.75C769.595 233.252 771.406 234.214 773.375 234.448C775.359 234.508 777.286 233.786 778.742 232.438C780.198 231.09 781.064 229.224 781.155 227.243Z" fill="black"/>
<path d="M778.662 175.933C786.008 176.26 793.062 178.906 798.81 183.489C803.93 187.485 803.527 194.229 798.089 196.518C796.151 197.105 794.086 197.131 792.134 196.594C790.437 196.059 788.821 195.292 787.333 194.316C780.696 190.926 773.887 189.898 766.74 192.744C765.551 193.331 764.199 193.504 762.9 193.235C761.601 192.966 760.429 192.272 759.57 191.261C758.671 190.164 758.126 188.821 758.006 187.409C757.886 185.996 758.196 184.581 758.897 183.348C759.649 182.193 760.628 181.203 761.774 180.437C766.775 177.166 772.695 175.586 778.662 175.933Z" fill="black"/>
<path d="M895.992 176.927C903.334 177.252 910.383 179.898 916.124 184.483C921.245 188.479 920.857 195.223 915.404 197.512C913.466 198.1 911.401 198.126 909.449 197.588C907.752 197.051 906.137 196.284 904.648 195.31C898.011 191.92 891.202 190.892 884.07 193.738C882.88 194.325 881.529 194.498 880.229 194.229C878.93 193.961 877.758 193.266 876.899 192.255C875.995 191.162 875.444 189.819 875.321 188.406C875.198 186.992 875.509 185.575 876.212 184.342C876.956 183.16 877.936 182.144 879.091 181.357C884.104 178.11 890.029 176.557 895.992 176.927Z" fill="black"/>
<path d="M794.851 480.181C794.851 480.181 793.388 496.51 791.152 498.647" stroke="black" stroke-width="19.3219" stroke-miterlimit="10"/>
<path d="M867.135 482.365C867.135 482.365 866.748 499.818 869.972 502.061" stroke="black" stroke-width="19.3219" stroke-miterlimit="10"/>
<path d="M902.794 522.222C903.948 513.179 893.994 504.46 880.56 502.747C867.126 501.034 855.301 506.976 854.146 516.019C852.992 525.062 862.947 533.781 876.381 535.494C889.814 537.206 901.64 531.264 902.794 522.222Z" stroke="black" stroke-width="17.6045" stroke-miterlimit="10"/>
<path d="M802.94 518.622C804.2 508.749 793.334 499.229 778.669 497.359C764.004 495.489 751.095 501.977 749.835 511.851C748.574 521.725 759.441 531.245 774.105 533.115C788.77 534.985 801.679 528.496 802.94 518.622Z" stroke="black" stroke-width="17.6045" stroke-miterlimit="10"/>
<g filter="url(#filter2_d_661_34)">
<path d="M837.938 293.546C831.38 293.311 827.585 290.609 823.153 284.412C822.315 283.216 821.878 281.785 821.904 280.324C822.171 279.08 822.904 277.984 823.952 277.261C824.995 276.496 826.159 277.042 826.996 278.221C829.709 282.074 830.948 284.57 835.214 285.498C841.613 286.874 843.937 286.078 848.713 280.785C850.727 278.539 852.253 278.216 853.617 279.763C854.982 281.31 854.902 284.254 853.009 286.368C847.971 292.102 845.228 293.663 837.938 293.546Z" fill="black"/>
</g>
<g filter="url(#filter3_d_661_34)">
<path d="M227.23 568.019L226.323 567.999C223.576 567.846 220.998 566.627 219.138 564.601C217.278 562.576 216.283 559.905 216.366 557.157L222.942 239.71L129.798 240.32C123.467 240.057 118.22 235.298 118.473 229.416L118.653 161.632L118.674 160.725C118.875 157.997 120.109 155.447 122.124 153.596C124.14 151.744 126.785 150.73 129.523 150.759L214.322 149.841L393.902 147.997C399.788 148.235 405.48 153.019 405.202 159.345L405.072 226.24C404.946 229.204 403.707 232.012 401.603 234.104C399.499 236.197 396.683 237.421 393.717 237.532L297.23 237.699L290.629 555.575L290.619 556.02C290.413 558.789 289.191 561.384 287.186 563.307C285.181 565.229 282.536 566.342 279.76 566.432L227.23 568.019Z" fill="url(#paint0_linear_661_34)"/>
</g>
<path d="M424.516 393.974C423.89 396.558 422.886 398.104 421.139 398.511C414.401 399.053 407.646 397.689 401.647 394.574C396.053 399.611 389.332 403.236 382.048 405.145C359.775 410.8 336.187 398.733 330.664 377.275C326.542 361.289 331.948 335.324 358.353 328.531C364.678 326.902 371.266 326.567 377.724 327.546C378.063 326.951 378.531 326.439 379.093 326.047C379.655 325.656 380.297 325.394 380.973 325.282L381.638 325.112L405.196 321.223C408.732 320.594 410.114 322.085 410.525 323.677L410.694 324.357C411.953 336.959 413.07 349.004 415.32 357.831C417.388 365.824 420.33 371.177 425.18 372.346C426.711 372.672 428.347 373.092 428.687 374.422C428.771 374.854 428.761 375.299 428.658 375.728L424.516 393.974ZM383.479 364.873C382.587 361.41 381.791 357.78 381.035 353.72C379.645 352.532 377.982 351.708 376.194 351.322C374.406 350.936 372.551 351.001 370.794 351.51C362.394 353.676 359.773 362.995 361.577 369.752C361.984 371.606 362.769 373.356 363.883 374.894C364.996 376.432 366.414 377.724 368.049 378.691C369.684 379.657 371.501 380.277 373.386 380.511C375.27 380.745 377.183 380.589 379.005 380.053C381.941 379.264 384.684 377.881 387.063 375.989C385.652 372.357 384.455 368.645 383.479 364.873Z" fill="url(#paint1_linear_661_34)"/>
<path d="M471.207 545.437L470.884 545.43C470.063 545.34 469.303 544.952 468.749 544.339C468.195 543.726 467.887 542.93 467.882 542.104L466.982 507.744C466.516 491.286 463.24 484.389 453.003 483.363L454.677 542.473C454.705 543.351 454.393 544.207 453.805 544.861C453.218 545.516 452.4 545.918 451.523 545.984L421.05 546.846L420.727 546.839C419.903 546.756 419.139 546.369 418.584 545.755C418.029 545.14 417.723 544.341 417.724 543.513L415.434 458.827L415.441 458.504C415.448 457.691 415.762 456.911 416.319 456.319C416.877 455.727 417.638 455.368 418.449 455.312L428.223 455.021C436.096 452.542 444.318 451.344 452.572 451.472C459.561 451.536 466.477 452.894 472.971 455.475C482.44 452.011 492.455 450.276 502.538 450.351C531.194 450.987 551.81 469.459 552.967 499.121C553.394 509.706 555.016 517.72 562.538 523.928C563.504 524.764 565.42 526.436 565.38 528.218C565.36 528.721 565.229 529.214 564.996 529.661C564.762 530.108 564.433 530.497 564.031 530.801C564.024 531.124 549.896 544 549.896 544C548.601 545.348 546.826 546.132 544.956 546.18C542.681 546.13 517.227 540.539 515.954 508.446C515.514 490.866 512.23 484.276 502.973 482.78L504.683 540.937C504.707 541.815 504.394 542.669 503.807 543.322C503.22 543.976 502.405 544.379 501.529 544.449L471.207 545.437Z" fill="url(#paint2_linear_661_34)"/>
<path d="M471.881 415.853C468.475 416.885 466.756 416.724 465.039 414.38L452.87 398.523C452.589 398.179 452.36 397.796 452.188 397.386C451.486 395.065 454.482 393.84 456.34 393.282C465.401 390.408 468.418 384.772 467.377 381.075C466.775 379.064 464.017 377.204 461.034 375.078L455.465 371.696C446.362 366.022 441.584 360.228 439.822 354.364C434.579 336.924 456.962 320.111 477.184 314.057C483.207 312.239 484.911 312.4 486.84 314.856L499.179 330.654C499.556 331.068 499.82 331.572 499.947 332.116C500.463 333.803 498.946 334.938 496.933 335.539L496.314 335.725C487.024 338.501 484.44 342.656 485.325 345.734C486.113 348.365 489.309 350.588 497.125 355.311C506.553 360.9 511.726 366.918 513.488 372.782C518.96 390.981 494.225 409.14 473.6 415.354L471.881 415.853Z" fill="url(#paint3_linear_661_34)"/>
<path d="M616.435 544.644C580.262 537.57 563.671 513.085 566.466 488.306C569.105 464.984 588.34 442.399 625.53 446.575C666.003 451.146 663.723 487.388 663.112 492.77C662.269 500.268 658.463 506.117 648.479 508.278C638.994 510 629.329 510.519 619.714 509.823C618.752 509.831 617.825 509.464 617.13 508.8C616.436 508.136 616.028 507.227 615.993 506.267C614.579 500.671 612.73 489.716 612.806 489.072C613.015 487.278 614.399 486.602 616.589 486.358C625.286 485.352 626.459 485.163 626.725 482.878C626.897 481.345 624.373 475.848 617.533 474.989C609.693 474.108 602.405 480.218 601.258 490.322C599.956 501.899 606.966 515.904 627.357 518.201C637.307 520.328 724.448 502.584 725.602 502.548L725.925 502.555C728.211 502.821 730.817 504.6 730.509 507.376C730.507 507.483 730.504 507.622 730.5 507.806C728.635 522.552 712.154 524.308 698.126 529.193C682.624 534.644 663.991 542.578 637.98 544.768C631.484 545.377 624.945 545.396 618.445 544.827L616.435 544.644Z" fill="url(#paint4_linear_661_34)"/>
<path d="M660.229 403.613C659.372 405.5 658.362 406.646 656.863 406.951C655.936 407.09 654.987 406.957 654.134 406.567C644.818 402.887 598.613 384.908 590.009 381.704C589.412 381.466 588.88 381.091 588.455 380.609C588.03 380.126 587.724 379.551 587.564 378.929C587.426 378.024 587.621 377.1 588.114 376.328L596.441 360.772C589.712 366.664 583.599 371.816 580.923 373.924L580.124 374.552L586.732 399.816C586.855 400.224 586.892 400.654 586.841 401.077C586.789 401.5 586.65 401.909 586.432 402.275C586.214 402.642 585.923 402.959 585.575 403.207C585.228 403.455 584.833 403.628 584.415 403.715L554.818 411.544C553.997 411.722 553.14 411.583 552.417 411.157C551.693 410.731 551.158 410.048 550.916 409.244L519.493 288.541L519.499 288.25C519.383 287.487 519.542 286.708 519.948 286.052C520.354 285.396 520.981 284.906 521.717 284.671L551.279 277.026L551.586 277.033C552.374 276.903 553.181 277.075 553.847 277.514C554.513 277.953 554.989 278.628 555.179 279.403L571.552 342.19C576.7 336.155 598.451 311.735 605.033 310.39C605.836 310.274 606.655 310.377 607.403 310.689C608.152 311 608.802 311.509 609.285 312.16L625.814 329.758C626.546 330.428 627.062 331.301 627.296 332.266C627.423 333.09 627.308 333.934 626.967 334.695C626.625 335.457 626.071 336.103 625.371 336.558C622.007 339.112 614.405 345.538 606.489 352.264C617.594 357.122 663.721 375.145 669.042 380.735C669.21 381.823 669.057 382.936 668.602 383.938L660.229 403.613Z" fill="url(#paint5_linear_661_34)"/>
<path d="M358.488 554.927C357.498 554.939 356.544 554.561 355.831 553.875C355.118 553.189 354.704 552.25 354.678 551.261L352.346 429.605C352.334 428.616 352.712 427.662 353.399 426.95C354.085 426.237 355.024 425.823 356.014 425.797L384.294 425.317C385.284 425.31 386.238 425.689 386.952 426.374C387.667 427.058 388.086 427.995 388.12 428.984L390.452 550.64C390.456 551.628 390.075 552.579 389.391 553.293C388.707 554.006 387.772 554.426 386.784 554.463L358.488 554.927Z" fill="url(#paint6_linear_661_34)"/>
<defs>
<filter id="filter0_f_661_34" x="107.034" y="74.3906" width="1047.68" height="543.623" filterUnits="userSpaceOnUse" color-interpolation-filters="sRGB">
<feFlood flood-opacity="0" result="BackgroundImageFix"/>
<feBlend mode="normal" in="SourceGraphic" in2="BackgroundImageFix" result="shape"/>
<feGaussianBlur stdDeviation="4" result="effect1_foregroundBlur_661_34"/>
</filter>
<filter id="filter1_d_661_34" x="21.3821" y="2.01826" width="1158.59" height="654.538" filterUnits="userSpaceOnUse" color-interpolation-filters="sRGB">
<feFlood flood-opacity="0" result="BackgroundImageFix"/>
<feColorMatrix in="SourceAlpha" type="matrix" values="0 0 0 0 0 0 0 0 0 0 0 0 0 0 0 0 0 0 127 0" result="hardAlpha"/>
<feOffset dy="3.43838"/>
<feGaussianBlur stdDeviation="33.954"/>
<feComposite in2="hardAlpha" operator="out"/>
<feColorMatrix type="matrix" values="0 0 0 0 0.54902 0 0 0 0 0.431373 0 0 0 0 0.74902 0 0 0 1 0"/>
<feBlend mode="normal" in2="BackgroundImageFix" result="effect1_dropShadow_661_34"/>
<feBlend mode="normal" in="SourceGraphic" in2="effect1_dropShadow_661_34" result="shape"/>
</filter>
<filter id="filter2_d_661_34" x="773.598" y="233.432" width="129.255" height="113.255" filterUnits="userSpaceOnUse" color-interpolation-filters="sRGB">
<feFlood flood-opacity="0" result="BackgroundImageFix"/>
<feColorMatrix in="SourceAlpha" type="matrix" values="0 0 0 0 0 0 0 0 0 0 0 0 0 0 0 0 0 0 127 0" result="hardAlpha"/>
<feOffset dy="4.83049"/>
<feGaussianBlur stdDeviation="24.1524"/>
<feComposite in2="hardAlpha" operator="out"/>
<feColorMatrix type="matrix" values="0 0 0 0 0.482353 0 0 0 0 0.368627 0 0 0 0 0.92549 0 0 0 1 0"/>
<feBlend mode="normal" in2="BackgroundImageFix" result="effect1_dropShadow_661_34"/>
<feBlend mode="normal" in="SourceGraphic" in2="effect1_dropShadow_661_34" result="shape"/>
</filter>
<filter id="filter3_d_661_34" x="87.0667" y="121.429" width="349.542" height="482.819" filterUnits="userSpaceOnUse" color-interpolation-filters="sRGB">
<feFlood flood-opacity="0" result="BackgroundImageFix"/>
<feColorMatrix in="SourceAlpha" type="matrix" values="0 0 0 0 0 0 0 0 0 0 0 0 0 0 0 0 0 0 127 0" result="hardAlpha"/>
<feOffset dy="4.83049"/>
<feGaussianBlur stdDeviation="15.6991"/>
<feComposite in2="hardAlpha" operator="out"/>
<feColorMatrix type="matrix" values="0 0 0 0 0.482353 0 0 0 0 0.368627 0 0 0 0 0.92549 0 0 0 1 0"/>
<feBlend mode="normal" in2="BackgroundImageFix" result="effect1_dropShadow_661_34"/>
<feBlend mode="normal" in="SourceGraphic" in2="effect1_dropShadow_661_34" result="shape"/>
</filter>
<linearGradient id="paint0_linear_661_34" x1="262.946" y1="145.093" x2="253.557" y2="568.603" gradientUnits="userSpaceOnUse">
<stop stop-color="#9670BD"/>
<stop offset="1" stop-color="#435ACB"/>
</linearGradient>
<linearGradient id="paint1_linear_661_34" x1="380.2" y1="320.485" x2="378.288" y2="406.709" gradientUnits="userSpaceOnUse">
<stop stop-color="#9670BD"/>
<stop offset="1" stop-color="#435ACB"/>
</linearGradient>
<linearGradient id="paint2_linear_661_34" x1="491.37" y1="450.104" x2="489.191" y2="548.357" gradientUnits="userSpaceOnUse">
<stop stop-color="#9670BD"/>
<stop offset="1" stop-color="#435ACB"/>
</linearGradient>
<linearGradient id="paint3_linear_661_34" x1="477.781" y1="312.715" x2="475.478" y2="416.61" gradientUnits="userSpaceOnUse">
<stop stop-color="#9670BD"/>
<stop offset="1" stop-color="#435ACB"/>
</linearGradient>
<linearGradient id="paint4_linear_661_34" x1="586.214" y1="455.799" x2="726.216" y2="517.295" gradientUnits="userSpaceOnUse">
<stop stop-color="#9670BD"/>
<stop offset="0.51176" stop-color="#435ACB"/>
<stop offset="1"/>
</linearGradient>
<linearGradient id="paint5_linear_661_34" x1="595.543" y1="277.953" x2="592.561" y2="412.473" gradientUnits="userSpaceOnUse">
<stop stop-color="#9670BD"/>
<stop offset="1" stop-color="#435ACB"/>
</linearGradient>
<linearGradient id="paint6_linear_661_34" x1="372.841" y1="425.062" x2="369.956" y2="555.184" gradientUnits="userSpaceOnUse">
<stop stop-color="#9670BD"/>
<stop offset="1" stop-color="#435ACB"/>
</linearGradient>
</defs>
</svg>
