<svg width="102" height="105" viewBox="0 0 102 105" fill="none" xmlns="http://www.w3.org/2000/svg">
<g clip-path="url(#clip0_707_2022)">
<path d="M81.1204 66.2599C92.4036 66.2599 101.55 57.1131 101.55 45.8299C101.55 34.5467 92.4036 25.3999 81.1204 25.3999C69.8373 25.3999 60.6904 34.5467 60.6904 45.8299C60.6904 57.1131 69.8373 66.2599 81.1204 66.2599Z" fill="black"/>
<path d="M74.5396 43.67C77.2679 43.67 79.4796 41.4583 79.4796 38.73C79.4796 36.0018 77.2679 33.79 74.5396 33.79C71.8113 33.79 69.5996 36.0018 69.5996 38.73C69.5996 41.4583 71.8113 43.67 74.5396 43.67Z" fill="white"/>
<path d="M20.43 66.9701C31.7132 66.9701 40.86 57.8233 40.86 46.5401C40.86 35.2569 31.7132 26.1101 20.43 26.1101C9.14682 26.1101 0 35.2569 0 46.5401C0 57.8233 9.14682 66.9701 20.43 66.9701Z" fill="black"/>
<path d="M13.8404 44.39C16.5687 44.39 18.7804 42.1783 18.7804 39.45C18.7804 36.7217 16.5687 34.51 13.8404 34.51C11.1121 34.51 8.90039 36.7217 8.90039 39.45C8.90039 42.1783 11.1121 44.39 13.8404 44.39Z" fill="white"/>
<path d="M80.5898 0.489955C85.3698 0.189955 90.2098 1.40995 94.5798 4.15995C98.2798 6.47995 98.4798 11.03 94.9898 12.93C93.8998 13.52 92.3498 13.51 91.0398 13.39C89.8898 13.28 88.7898 12.63 87.6798 12.2C83.0098 10.38 78.3898 10.17 73.8098 12.55C72.1098 13.43 70.3998 13.44 68.9098 12.05C67.5698 10.8 67.0898 8.53995 67.9098 6.80995C68.2998 5.98995 68.9198 5.19995 69.6198 4.60995C72.6698 2.05995 76.2698 0.859955 80.5898 0.489955Z" fill="black"/>
<path d="M20.2896 0C25.0796 0.09 29.7996 1.69 33.9396 4.78C37.4396 7.39 37.2696 11.94 33.6396 13.56C32.5096 14.07 30.9596 13.93 29.6696 13.7C28.5296 13.5 27.4896 12.77 26.4096 12.24C21.8996 10.05 17.3096 9.47 12.5496 11.48C10.7896 12.23 9.07962 12.09 7.70962 10.59C6.47962 9.24 6.17962 6.94 7.13962 5.29C7.60962 4.5 8.28962 3.76 9.03962 3.23C12.2696 0.93 15.9496 0.02 20.2896 0Z" fill="black"/>
<path d="M45.4297 74.2199C43.7097 74.9699 42.2497 76.2099 41.0797 77.6699C39.8397 79.2199 38.5197 80.9699 38.1697 82.9699C37.7897 85.1399 38.5797 87.2099 40.0197 88.8099C40.7197 89.5899 41.5497 90.2799 42.3897 90.8899C43.8897 91.9699 42.3297 89.2599 42.7297 89.3299C42.5697 89.2999 41.7197 90.1099 41.5397 90.2699C39.1397 92.3399 37.0897 95.9899 37.9597 99.2399C39.0497 103.33 44.5797 105.02 48.3297 104.99C51.5497 104.97 51.5497 99.9699 48.3297 99.9899C46.7697 99.9999 45.3097 99.5799 43.9297 98.8599C43.0297 98.3899 42.5697 98.0399 42.8297 97.1299C43.0597 96.3299 43.4497 95.5499 43.9697 94.8999C45.0197 93.5799 46.7097 92.9399 47.2697 91.2399C47.9297 89.2499 46.8597 87.9399 45.3197 86.8499C44.5197 86.2799 43.2397 85.3999 43.0597 84.3399C42.8697 83.2099 44.0697 81.8699 44.7097 81.0499C45.5997 79.9199 46.6097 79.0999 47.9297 78.5299C49.1697 77.9899 49.4497 76.1799 48.8297 75.1099C48.0997 73.8399 46.6697 73.6799 45.4297 74.2199Z" fill="black"/>
</g>
<defs>
<clipPath id="clip0_707_2022">
<rect width="101.55" height="105" fill="white"/>
</clipPath>
</defs>
</svg>
