<svg width="813" height="611" viewBox="0 0 813 611" fill="none" xmlns="http://www.w3.org/2000/svg">
<g filter="url(#filter0_d_410_458)">
<path d="M368.513 198.209C326.013 198.21 330.013 195.71 304.013 203.711C304.013 203.711 281.516 276.212 304.016 280.211C326.516 284.21 333.015 268.21 359.015 264.709C385.015 261.208 412.015 266.707 412.015 266.707C426.166 261.561 431.928 253.31 470.515 254.705C487.144 255.307 486.514 225.705 528.014 219.204C569.514 212.702 561.84 253.884 570.515 254.702C584.017 255.976 600.13 259.116 606.13 264.616C612.13 270.116 594.63 289.616 624.63 305.616C654.63 321.616 652.988 331.364 657.13 345.616C660.13 362.616 612.13 369.616 612.13 369.616C600.63 392.116 624.13 386.616 639.63 407.116C655.13 427.616 653.113 441.108 661.13 445.116C693.13 461.116 723.13 434.616 727.13 461.116C731.13 487.616 578.13 510.116 559.63 486.616C540.829 486.063 534.186 497.607 528.523 498.704C513.023 501.704 498.218 496.2 443.523 498.706C437.121 499 405.023 495.708 389.523 498.708C374.023 501.709 367.443 503.484 362.023 503.709C341.073 504.578 351.338 497.494 320.838 494.495C290.038 496.496 286.838 509.211 279.839 515.712C272.839 522.212 191.344 524.715 189.524 515.715C187.703 506.715 191.518 338.215 191.518 338.215C191.518 338.215 192.514 233.715 182.514 212.215C172.513 190.715 91.5301 215.218 87.0121 166.218C82.4941 117.218 96.5095 88.2178 109.009 87.2174C121.509 86.217 376.009 72.2085 398.51 97.7078C421.011 123.207 411.013 198.207 368.513 198.209Z" fill="white"/>
<path d="M368.513 198.209C326.013 198.21 330.013 195.71 304.013 203.711C304.013 203.711 281.516 276.212 304.016 280.211C326.516 284.21 333.015 268.21 359.015 264.709C385.015 261.208 412.015 266.707 412.015 266.707C426.166 261.561 431.928 253.31 470.515 254.705C487.144 255.307 486.514 225.705 528.014 219.204C569.514 212.702 561.84 253.884 570.515 254.702C584.017 255.976 600.13 259.116 606.13 264.616C612.13 270.116 594.63 289.616 624.63 305.616C654.63 321.616 652.988 331.364 657.13 345.616C660.13 362.616 612.13 369.616 612.13 369.616C600.63 392.116 624.13 386.616 639.63 407.116C655.13 427.616 653.113 441.108 661.13 445.116C693.13 461.116 723.13 434.616 727.13 461.116C731.13 487.616 578.13 510.116 559.63 486.616C540.829 486.063 534.186 497.607 528.523 498.704C513.023 501.704 498.218 496.2 443.523 498.706C437.121 499 405.023 495.708 389.523 498.708C374.023 501.709 367.443 503.484 362.023 503.709C341.073 504.578 351.338 497.494 320.838 494.495C290.038 496.496 286.838 509.211 279.839 515.712C272.839 522.212 191.344 524.715 189.524 515.715C187.703 506.715 191.518 338.215 191.518 338.215C191.518 338.215 192.514 233.715 182.514 212.215C172.513 190.715 91.5301 215.218 87.0121 166.218C82.4941 117.218 96.5095 88.2178 109.009 87.2174C121.509 86.217 376.009 72.2085 398.51 97.7078C421.011 123.207 411.013 198.207 368.513 198.209Z" stroke="white" stroke-width="35"/>
</g>
<g filter="url(#filter1_d_410_458)">
<path d="M212.658 519.731L211.751 519.711C209.004 519.558 206.426 518.339 204.566 516.313C202.706 514.288 201.711 511.616 201.794 508.868L208.37 191.422L115.226 192.032C108.895 191.769 103.648 187.01 103.901 181.128L104.081 113.344L104.101 112.437C104.302 109.709 105.536 107.159 107.552 105.308C109.567 103.456 112.213 102.442 114.95 102.471L199.749 101.553L379.33 99.7086C385.215 99.9467 390.908 104.73 390.629 111.057L390.5 177.952C390.374 180.916 389.135 183.724 387.031 185.816C384.927 187.909 382.111 189.133 379.144 189.244L282.657 189.411L276.056 507.287L276.046 507.732C275.841 510.501 274.618 513.096 272.614 515.018C270.609 516.941 267.964 518.054 265.187 518.144L212.658 519.731Z" fill="url(#paint0_linear_410_458)"/>
</g>
<path d="M409.944 345.686C409.317 348.27 408.314 349.816 406.567 350.223C399.829 350.765 393.074 349.401 387.075 346.286C381.48 351.324 374.76 354.949 367.476 356.858C345.202 362.512 321.614 350.445 316.091 328.987C311.97 313.002 317.375 287.036 343.781 280.243C350.105 278.614 356.694 278.279 363.152 279.258C363.491 278.663 363.959 278.151 364.521 277.76C365.083 277.368 365.725 277.106 366.401 276.994L367.066 276.824L390.623 272.935C394.16 272.306 395.542 273.797 395.952 275.389L396.122 276.069C397.38 288.671 398.498 300.717 400.748 309.544C402.816 317.537 405.758 322.89 410.608 324.058C412.139 324.384 413.775 324.804 414.115 326.134C414.199 326.566 414.189 327.012 414.086 327.44L409.944 345.686ZM368.907 316.585C368.015 313.122 367.219 309.492 366.463 305.433C365.073 304.244 363.409 303.42 361.622 303.034C359.834 302.648 357.978 302.713 356.222 303.223C347.822 305.388 345.201 314.707 347.004 321.464C347.412 323.318 348.197 325.069 349.31 326.606C350.424 328.144 351.842 329.437 353.477 330.403C355.112 331.369 356.928 331.989 358.813 332.223C360.698 332.458 362.611 332.302 364.433 331.765C367.369 330.976 370.112 329.593 372.49 327.701C371.08 324.069 369.883 320.357 368.907 316.585Z" fill="url(#paint1_linear_410_458)"/>
<path d="M456.635 497.149L456.312 497.141C455.49 497.052 454.73 496.664 454.177 496.05C453.623 495.437 453.314 494.642 453.309 493.816L452.41 459.456C451.944 442.998 448.667 436.101 438.431 435.074L440.104 494.184C440.133 495.063 439.821 495.919 439.233 496.573C438.645 497.227 437.828 497.63 436.95 497.696L406.477 498.558L406.155 498.55C405.33 498.468 404.567 498.081 404.012 497.467C403.457 496.852 403.15 496.053 403.152 495.225L400.862 410.538L400.869 410.216C400.876 409.403 401.189 408.622 401.747 408.031C402.305 407.439 403.066 407.079 403.877 407.024L413.65 406.733C421.524 404.254 429.745 403.056 438 403.184C444.988 403.248 451.904 404.605 458.398 407.187C467.868 403.723 477.883 401.987 487.966 402.063C516.622 402.698 537.238 421.171 538.395 450.833C538.822 461.418 540.444 469.432 547.966 475.639C548.931 476.476 550.848 478.147 550.808 479.93C550.788 480.433 550.657 480.926 550.423 481.373C550.19 481.819 549.861 482.209 549.459 482.513C549.452 482.836 535.324 495.711 535.324 495.711C534.029 497.06 532.254 497.843 530.384 497.892C528.109 497.842 502.655 492.251 501.382 460.157C500.941 442.578 497.657 435.988 488.401 434.491L490.111 492.649C490.135 493.527 489.822 494.38 489.235 495.034C488.648 495.687 487.832 496.091 486.957 496.161L456.635 497.149Z" fill="url(#paint2_linear_410_458)"/>
<path d="M457.309 367.565C453.902 368.597 452.183 368.436 450.467 366.092L438.298 350.235C438.017 349.891 437.787 349.508 437.616 349.098C436.914 346.777 439.909 345.552 441.767 344.994C450.829 342.12 453.845 336.484 452.805 332.787C452.203 330.776 449.445 328.916 446.462 326.79L440.892 323.408C431.79 317.734 427.012 311.94 425.25 306.075C420.007 288.635 442.39 271.823 462.611 265.769C468.635 263.951 470.338 264.111 472.268 266.568L484.607 282.366C484.983 282.78 485.248 283.284 485.374 283.828C485.891 285.515 484.374 286.65 482.361 287.251L481.741 287.437C472.451 290.213 469.868 294.368 470.753 297.446C471.541 300.077 474.737 302.3 482.553 307.023C491.981 312.612 497.153 318.629 498.915 324.494C504.387 342.693 479.652 360.852 459.027 367.066L457.309 367.565Z" fill="url(#paint3_linear_410_458)"/>
<path d="M601.862 496.356C565.69 489.282 549.098 464.796 551.893 440.018C554.533 416.696 573.767 394.111 610.958 398.287C651.431 402.858 649.151 439.099 648.539 444.481C647.696 451.979 643.891 457.828 633.907 459.99C624.421 461.711 614.757 462.23 605.141 461.535C604.18 461.543 603.253 461.176 602.558 460.512C601.863 459.848 601.455 458.939 601.421 457.978C600.007 452.382 598.158 441.428 598.234 440.784C598.443 438.99 599.827 438.313 602.016 438.07C610.713 437.064 611.886 436.874 612.152 434.59C612.325 433.057 609.801 427.559 602.96 426.7C595.12 425.82 587.833 431.93 586.686 442.034C585.383 453.611 592.394 467.616 612.784 469.913C622.735 472.039 709.876 454.295 711.03 454.26L711.353 454.267C713.639 454.533 716.245 456.312 715.937 459.087C715.935 459.195 715.932 459.333 715.927 459.518C714.062 474.264 697.582 476.02 683.554 480.904C668.052 486.356 649.419 494.289 623.408 496.48C616.911 497.088 610.373 497.108 603.873 496.538L601.862 496.356Z" fill="url(#paint4_linear_410_458)"/>
<path d="M645.657 355.324C644.8 357.211 643.79 358.357 642.291 358.662C641.363 358.802 640.415 358.669 639.562 358.279C630.246 354.598 584.041 336.619 575.437 333.416C574.84 333.178 574.307 332.802 573.882 332.32C573.457 331.838 573.152 331.263 572.991 330.641C572.854 329.736 573.049 328.812 573.541 328.04L581.869 312.484C575.14 318.376 569.027 323.528 566.35 325.636L565.552 326.264L572.159 351.528C572.283 351.936 572.32 352.365 572.269 352.789C572.217 353.212 572.078 353.62 571.86 353.987C571.642 354.354 571.35 354.671 571.003 354.919C570.656 355.167 570.26 355.34 569.843 355.427L540.246 363.256C539.425 363.433 538.568 363.295 537.844 362.869C537.121 362.442 536.585 361.759 536.344 360.956L504.921 240.253L504.927 239.961C504.81 239.199 504.969 238.419 505.376 237.764C505.782 237.108 506.409 236.618 507.144 236.383L536.706 228.737L537.014 228.744C537.801 228.614 538.609 228.786 539.275 229.226C539.941 229.665 540.417 230.34 540.607 231.114L556.979 293.901C562.127 287.867 583.879 263.447 590.461 262.102C591.263 261.985 592.082 262.089 592.831 262.4C593.58 262.712 594.23 263.22 594.713 263.872L611.241 281.47C611.974 282.14 612.49 283.013 612.724 283.977C612.851 284.802 612.736 285.646 612.395 286.407C612.053 287.168 611.499 287.815 610.798 288.269C607.435 290.823 599.833 297.249 591.916 303.976C603.021 308.833 649.149 326.857 654.469 332.447C654.638 333.535 654.485 334.648 654.029 335.65L645.657 355.324Z" fill="url(#paint5_linear_410_458)"/>
<path d="M343.916 506.639C342.926 506.651 341.972 506.273 341.259 505.587C340.546 504.901 340.132 503.962 340.106 502.973L337.773 381.317C337.762 380.328 338.14 379.374 338.826 378.662C339.513 377.949 340.452 377.535 341.441 377.509L369.722 377.03C370.712 377.022 371.666 377.401 372.38 378.086C373.095 378.771 373.514 379.707 373.547 380.696L375.88 502.352C375.884 503.341 375.503 504.292 374.819 505.005C374.134 505.718 373.199 506.138 372.211 506.175L343.916 506.639Z" fill="url(#paint6_linear_410_458)"/>
<defs>
<filter id="filter0_d_410_458" x="0.737595" y="0.513617" width="811.892" height="609.896" filterUnits="userSpaceOnUse" color-interpolation-filters="sRGB">
<feFlood flood-opacity="0" result="BackgroundImageFix"/>
<feColorMatrix in="SourceAlpha" type="matrix" values="0 0 0 0 0 0 0 0 0 0 0 0 0 0 0 0 0 0 127 0" result="hardAlpha"/>
<feOffset dy="3.43838"/>
<feGaussianBlur stdDeviation="33.954"/>
<feComposite in2="hardAlpha" operator="out"/>
<feColorMatrix type="matrix" values="0 0 0 0 0.54902 0 0 0 0 0.431373 0 0 0 0 0.74902 0 0 0 1 0"/>
<feBlend mode="normal" in2="BackgroundImageFix" result="effect1_dropShadow_410_458"/>
<feBlend mode="normal" in="SourceGraphic" in2="effect1_dropShadow_410_458" result="shape"/>
</filter>
<filter id="filter1_d_410_458" x="72.4944" y="73.1408" width="349.542" height="482.819" filterUnits="userSpaceOnUse" color-interpolation-filters="sRGB">
<feFlood flood-opacity="0" result="BackgroundImageFix"/>
<feColorMatrix in="SourceAlpha" type="matrix" values="0 0 0 0 0 0 0 0 0 0 0 0 0 0 0 0 0 0 127 0" result="hardAlpha"/>
<feOffset dy="4.83049"/>
<feGaussianBlur stdDeviation="15.6991"/>
<feComposite in2="hardAlpha" operator="out"/>
<feColorMatrix type="matrix" values="0 0 0 0 0.482353 0 0 0 0 0.368627 0 0 0 0 0.92549 0 0 0 1 0"/>
<feBlend mode="normal" in2="BackgroundImageFix" result="effect1_dropShadow_410_458"/>
<feBlend mode="normal" in="SourceGraphic" in2="effect1_dropShadow_410_458" result="shape"/>
</filter>
<linearGradient id="paint0_linear_410_458" x1="248.373" y1="96.8054" x2="238.984" y2="520.315" gradientUnits="userSpaceOnUse">
<stop stop-color="#9670BD"/>
<stop offset="1" stop-color="#435ACB"/>
</linearGradient>
<linearGradient id="paint1_linear_410_458" x1="365.627" y1="272.197" x2="363.716" y2="358.421" gradientUnits="userSpaceOnUse">
<stop stop-color="#9670BD"/>
<stop offset="1" stop-color="#435ACB"/>
</linearGradient>
<linearGradient id="paint2_linear_410_458" x1="476.797" y1="401.815" x2="474.619" y2="500.068" gradientUnits="userSpaceOnUse">
<stop stop-color="#9670BD"/>
<stop offset="1" stop-color="#435ACB"/>
</linearGradient>
<linearGradient id="paint3_linear_410_458" x1="463.209" y1="264.427" x2="460.905" y2="368.322" gradientUnits="userSpaceOnUse">
<stop stop-color="#9670BD"/>
<stop offset="1" stop-color="#435ACB"/>
</linearGradient>
<linearGradient id="paint4_linear_410_458" x1="571.641" y1="407.511" x2="711.643" y2="469.006" gradientUnits="userSpaceOnUse">
<stop stop-color="#9670BD"/>
<stop offset="1" stop-color="#435ACB"/>
</linearGradient>
<linearGradient id="paint5_linear_410_458" x1="580.971" y1="229.664" x2="577.988" y2="364.184" gradientUnits="userSpaceOnUse">
<stop stop-color="#9670BD"/>
<stop offset="1" stop-color="#435ACB"/>
</linearGradient>
<linearGradient id="paint6_linear_410_458" x1="358.268" y1="376.774" x2="355.384" y2="506.896" gradientUnits="userSpaceOnUse">
<stop stop-color="#9670BD"/>
<stop offset="1" stop-color="#435ACB"/>
</linearGradient>
</defs>
</svg>
